<mxfile host="65bd71144e">
    <diagram id="SxHnZXZY9kY7anA8C3Ji" name="new">
        <mxGraphModel dx="2026" dy="1058" grid="1" gridSize="10" guides="1" tooltips="1" connect="1" arrows="1" fold="1" page="1" pageScale="1" pageWidth="1169" pageHeight="827" math="0" shadow="0">
            <root>
                <mxCell id="0"/>
                <mxCell id="1" parent="0"/>
                <mxCell id="KnwQVms3fNyvqB5uXFuy-343" value="" style="rounded=0;whiteSpace=wrap;html=1;fillColor=none;strokeColor=#1A1A1A;dashed=1;dashPattern=8 8;" vertex="1" parent="1">
                    <mxGeometry x="90" y="50" width="190" height="550" as="geometry"/>
                </mxCell>
                <mxCell id="KnwQVms3fNyvqB5uXFuy-345" value="" style="rounded=0;whiteSpace=wrap;html=1;fillColor=none;strokeColor=#1A1A1A;dashed=1;dashPattern=8 8;" vertex="1" parent="1">
                    <mxGeometry x="320" y="49" width="590" height="550" as="geometry"/>
                </mxCell>
                <mxCell id="16" value="" style="shape=table;startSize=10;container=1;collapsible=0;childLayout=tableLayout;fontStyle=1;align=center;" parent="1" vertex="1">
                    <mxGeometry x="160" y="238.5" width="50" height="40" as="geometry"/>
                </mxCell>
                <mxCell id="17" value="" style="shape=tableRow;horizontal=0;startSize=0;swimlaneHead=0;swimlaneBody=0;top=0;left=0;bottom=0;right=0;collapsible=0;dropTarget=0;fillColor=none;points=[[0,0.5],[1,0.5]];portConstraint=eastwest;" parent="16" vertex="1">
                    <mxGeometry y="10" width="50" height="12" as="geometry"/>
                </mxCell>
                <mxCell id="18" value="" style="shape=partialRectangle;html=1;whiteSpace=wrap;connectable=0;fillColor=none;top=0;left=0;bottom=0;right=0;overflow=hidden;" parent="17" vertex="1">
                    <mxGeometry width="14" height="12" as="geometry">
                        <mxRectangle width="14" height="12" as="alternateBounds"/>
                    </mxGeometry>
                </mxCell>
                <mxCell id="19" value="" style="shape=partialRectangle;html=1;whiteSpace=wrap;connectable=0;fillColor=none;top=0;left=0;bottom=0;right=0;overflow=hidden;" parent="17" vertex="1">
                    <mxGeometry x="14" width="20" height="12" as="geometry">
                        <mxRectangle width="20" height="12" as="alternateBounds"/>
                    </mxGeometry>
                </mxCell>
                <mxCell id="20" value="" style="shape=partialRectangle;html=1;whiteSpace=wrap;connectable=0;fillColor=none;top=0;left=0;bottom=0;right=0;overflow=hidden;" parent="17" vertex="1">
                    <mxGeometry x="34" width="16" height="12" as="geometry">
                        <mxRectangle width="16" height="12" as="alternateBounds"/>
                    </mxGeometry>
                </mxCell>
                <mxCell id="21" value="" style="shape=tableRow;horizontal=0;startSize=0;swimlaneHead=0;swimlaneBody=0;top=0;left=0;bottom=0;right=0;collapsible=0;dropTarget=0;fillColor=none;points=[[0,0.5],[1,0.5]];portConstraint=eastwest;" parent="16" vertex="1">
                    <mxGeometry y="22" width="50" height="9" as="geometry"/>
                </mxCell>
                <mxCell id="22" value="" style="shape=partialRectangle;html=1;whiteSpace=wrap;connectable=0;fillColor=none;top=0;left=0;bottom=0;right=0;overflow=hidden;" parent="21" vertex="1">
                    <mxGeometry width="14" height="9" as="geometry">
                        <mxRectangle width="14" height="9" as="alternateBounds"/>
                    </mxGeometry>
                </mxCell>
                <mxCell id="23" value="" style="shape=partialRectangle;html=1;whiteSpace=wrap;connectable=0;fillColor=none;top=0;left=0;bottom=0;right=0;overflow=hidden;" parent="21" vertex="1">
                    <mxGeometry x="14" width="20" height="9" as="geometry">
                        <mxRectangle width="20" height="9" as="alternateBounds"/>
                    </mxGeometry>
                </mxCell>
                <mxCell id="24" value="" style="shape=partialRectangle;html=1;whiteSpace=wrap;connectable=0;fillColor=none;top=0;left=0;bottom=0;right=0;overflow=hidden;" parent="21" vertex="1">
                    <mxGeometry x="34" width="16" height="9" as="geometry">
                        <mxRectangle width="16" height="9" as="alternateBounds"/>
                    </mxGeometry>
                </mxCell>
                <mxCell id="25" value="" style="shape=tableRow;horizontal=0;startSize=0;swimlaneHead=0;swimlaneBody=0;top=0;left=0;bottom=0;right=0;collapsible=0;dropTarget=0;fillColor=none;points=[[0,0.5],[1,0.5]];portConstraint=eastwest;" parent="16" vertex="1">
                    <mxGeometry y="31" width="50" height="9" as="geometry"/>
                </mxCell>
                <mxCell id="26" value="" style="shape=partialRectangle;html=1;whiteSpace=wrap;connectable=0;fillColor=none;top=0;left=0;bottom=0;right=0;overflow=hidden;" parent="25" vertex="1">
                    <mxGeometry width="14" height="9" as="geometry">
                        <mxRectangle width="14" height="9" as="alternateBounds"/>
                    </mxGeometry>
                </mxCell>
                <mxCell id="27" value="" style="shape=partialRectangle;html=1;whiteSpace=wrap;connectable=0;fillColor=none;top=0;left=0;bottom=0;right=0;overflow=hidden;" parent="25" vertex="1">
                    <mxGeometry x="14" width="20" height="9" as="geometry">
                        <mxRectangle width="20" height="9" as="alternateBounds"/>
                    </mxGeometry>
                </mxCell>
                <mxCell id="28" value="" style="shape=partialRectangle;html=1;whiteSpace=wrap;connectable=0;fillColor=none;top=0;left=0;bottom=0;right=0;overflow=hidden;" parent="25" vertex="1">
                    <mxGeometry x="34" width="16" height="9" as="geometry">
                        <mxRectangle width="16" height="9" as="alternateBounds"/>
                    </mxGeometry>
                </mxCell>
                <mxCell id="280" style="edgeStyle=entityRelationEdgeStyle;html=1;exitX=1;exitY=0.5;exitDx=0;exitDy=0;fontColor=#FFFFFF;entryX=0;entryY=0.5;entryDx=0;entryDy=0;" parent="1" source="4" target="203" edge="1">
                    <mxGeometry relative="1" as="geometry">
                        <mxPoint x="350" y="500" as="targetPoint"/>
                    </mxGeometry>
                </mxCell>
                <mxCell id="4" value="&lt;font color=&quot;#ffffff&quot;&gt;MCIF_schema&lt;/font&gt;" style="swimlane;whiteSpace=wrap;html=1;fillColor=#e3c800;strokeColor=#B09500;fontColor=#000000;" parent="1" vertex="1">
                    <mxGeometry x="120" y="178.5" width="130" height="120" as="geometry"/>
                </mxCell>
                <mxCell id="31" value="" style="shape=image;verticalLabelPosition=bottom;labelBackgroundColor=default;verticalAlign=top;aspect=fixed;imageAspect=0;image=https://techdiw.com/wp-content/uploads/2023/02/Delta-Lake-logo-1.jpg;clipPath=inset(8.33% 33.33% 8.33% 33.33%);" parent="4" vertex="1">
                    <mxGeometry x="30" y="50" width="20" height="20" as="geometry"/>
                </mxCell>
                <mxCell id="164" style="edgeStyle=entityRelationEdgeStyle;html=1;exitX=1;exitY=0.5;exitDx=0;exitDy=0;fontColor=#1A1A1A;" parent="1" source="32" edge="1">
                    <mxGeometry relative="1" as="geometry">
                        <mxPoint x="350" y="150" as="targetPoint"/>
                    </mxGeometry>
                </mxCell>
                <mxCell id="279" style="edgeStyle=entityRelationEdgeStyle;html=1;exitX=1;exitY=0.25;exitDx=0;exitDy=0;entryX=0;entryY=0.5;entryDx=0;entryDy=0;fontColor=#FFFFFF;" parent="1" source="32" target="203" edge="1">
                    <mxGeometry relative="1" as="geometry"/>
                </mxCell>
                <mxCell id="32" value="PJ_DMT_schema" style="swimlane;whiteSpace=wrap;html=1;fillColor=#e3c800;fontColor=#FFFFFF;strokeColor=#B09500;" parent="1" vertex="1">
                    <mxGeometry x="120" y="338.5" width="130" height="241.5" as="geometry">
                        <mxRectangle x="60" y="280" width="150" height="30" as="alternateBounds"/>
                    </mxGeometry>
                </mxCell>
                <mxCell id="34" value="" style="shape=table;startSize=10;container=1;collapsible=0;childLayout=tableLayout;fontStyle=1;align=center;" parent="32" vertex="1">
                    <mxGeometry x="40" y="60" width="50" height="40" as="geometry"/>
                </mxCell>
                <mxCell id="35" value="" style="shape=tableRow;horizontal=0;startSize=0;swimlaneHead=0;swimlaneBody=0;top=0;left=0;bottom=0;right=0;collapsible=0;dropTarget=0;fillColor=none;points=[[0,0.5],[1,0.5]];portConstraint=eastwest;" parent="34" vertex="1">
                    <mxGeometry y="10" width="50" height="12" as="geometry"/>
                </mxCell>
                <mxCell id="36" value="" style="shape=partialRectangle;html=1;whiteSpace=wrap;connectable=0;fillColor=none;top=0;left=0;bottom=0;right=0;overflow=hidden;" parent="35" vertex="1">
                    <mxGeometry width="14" height="12" as="geometry">
                        <mxRectangle width="14" height="12" as="alternateBounds"/>
                    </mxGeometry>
                </mxCell>
                <mxCell id="37" value="" style="shape=partialRectangle;html=1;whiteSpace=wrap;connectable=0;fillColor=none;top=0;left=0;bottom=0;right=0;overflow=hidden;" parent="35" vertex="1">
                    <mxGeometry x="14" width="20" height="12" as="geometry">
                        <mxRectangle width="20" height="12" as="alternateBounds"/>
                    </mxGeometry>
                </mxCell>
                <mxCell id="38" value="" style="shape=partialRectangle;html=1;whiteSpace=wrap;connectable=0;fillColor=none;top=0;left=0;bottom=0;right=0;overflow=hidden;" parent="35" vertex="1">
                    <mxGeometry x="34" width="16" height="12" as="geometry">
                        <mxRectangle width="16" height="12" as="alternateBounds"/>
                    </mxGeometry>
                </mxCell>
                <mxCell id="39" value="" style="shape=tableRow;horizontal=0;startSize=0;swimlaneHead=0;swimlaneBody=0;top=0;left=0;bottom=0;right=0;collapsible=0;dropTarget=0;fillColor=none;points=[[0,0.5],[1,0.5]];portConstraint=eastwest;" parent="34" vertex="1">
                    <mxGeometry y="22" width="50" height="9" as="geometry"/>
                </mxCell>
                <mxCell id="40" value="" style="shape=partialRectangle;html=1;whiteSpace=wrap;connectable=0;fillColor=none;top=0;left=0;bottom=0;right=0;overflow=hidden;" parent="39" vertex="1">
                    <mxGeometry width="14" height="9" as="geometry">
                        <mxRectangle width="14" height="9" as="alternateBounds"/>
                    </mxGeometry>
                </mxCell>
                <mxCell id="41" value="" style="shape=partialRectangle;html=1;whiteSpace=wrap;connectable=0;fillColor=none;top=0;left=0;bottom=0;right=0;overflow=hidden;" parent="39" vertex="1">
                    <mxGeometry x="14" width="20" height="9" as="geometry">
                        <mxRectangle width="20" height="9" as="alternateBounds"/>
                    </mxGeometry>
                </mxCell>
                <mxCell id="42" value="" style="shape=partialRectangle;html=1;whiteSpace=wrap;connectable=0;fillColor=none;top=0;left=0;bottom=0;right=0;overflow=hidden;" parent="39" vertex="1">
                    <mxGeometry x="34" width="16" height="9" as="geometry">
                        <mxRectangle width="16" height="9" as="alternateBounds"/>
                    </mxGeometry>
                </mxCell>
                <mxCell id="43" value="" style="shape=tableRow;horizontal=0;startSize=0;swimlaneHead=0;swimlaneBody=0;top=0;left=0;bottom=0;right=0;collapsible=0;dropTarget=0;fillColor=none;points=[[0,0.5],[1,0.5]];portConstraint=eastwest;" parent="34" vertex="1">
                    <mxGeometry y="31" width="50" height="9" as="geometry"/>
                </mxCell>
                <mxCell id="44" value="" style="shape=partialRectangle;html=1;whiteSpace=wrap;connectable=0;fillColor=none;top=0;left=0;bottom=0;right=0;overflow=hidden;" parent="43" vertex="1">
                    <mxGeometry width="14" height="9" as="geometry">
                        <mxRectangle width="14" height="9" as="alternateBounds"/>
                    </mxGeometry>
                </mxCell>
                <mxCell id="45" value="" style="shape=partialRectangle;html=1;whiteSpace=wrap;connectable=0;fillColor=none;top=0;left=0;bottom=0;right=0;overflow=hidden;" parent="43" vertex="1">
                    <mxGeometry x="14" width="20" height="9" as="geometry">
                        <mxRectangle width="20" height="9" as="alternateBounds"/>
                    </mxGeometry>
                </mxCell>
                <mxCell id="46" value="" style="shape=partialRectangle;html=1;whiteSpace=wrap;connectable=0;fillColor=none;top=0;left=0;bottom=0;right=0;overflow=hidden;" parent="43" vertex="1">
                    <mxGeometry x="34" width="16" height="9" as="geometry">
                        <mxRectangle width="16" height="9" as="alternateBounds"/>
                    </mxGeometry>
                </mxCell>
                <mxCell id="33" value="" style="shape=image;verticalLabelPosition=bottom;labelBackgroundColor=default;verticalAlign=top;aspect=fixed;imageAspect=0;image=https://techdiw.com/wp-content/uploads/2023/02/Delta-Lake-logo-1.jpg;clipPath=inset(8.33% 33.33% 8.33% 33.33%);" parent="32" vertex="1">
                    <mxGeometry x="30" y="50" width="20" height="20" as="geometry"/>
                </mxCell>
                <mxCell id="285" value="PJ_layer1_tables" style="text;html=1;align=center;verticalAlign=middle;resizable=0;points=[];autosize=1;strokeColor=none;fillColor=none;fontColor=#1A1A1A;" parent="32" vertex="1">
                    <mxGeometry x="5" y="106" width="120" height="30" as="geometry"/>
                </mxCell>
                <mxCell id="WMav9wNIIoWjz00ohEl8-415" value="PJ_label" style="text;html=1;align=center;verticalAlign=middle;resizable=0;points=[];autosize=1;strokeColor=none;fillColor=none;fontColor=#1A1A1A;" vertex="1" parent="32">
                    <mxGeometry x="30" y="211.5" width="70" height="30" as="geometry"/>
                </mxCell>
                <mxCell id="200" style="edgeStyle=entityRelationEdgeStyle;html=1;fontColor=#FFFFFF;entryX=0.5;entryY=1;entryDx=0;entryDy=0;" parent="1" target="119" edge="1">
                    <mxGeometry relative="1" as="geometry">
                        <mxPoint x="480" y="260" as="sourcePoint"/>
                    </mxGeometry>
                </mxCell>
                <mxCell id="47" value="&lt;font color=&quot;#ffffff&quot;&gt;PJ_modelA_schema&lt;/font&gt;" style="swimlane;whiteSpace=wrap;html=1;fillColor=#bac8d3;strokeColor=#23445d;" parent="1" vertex="1">
                    <mxGeometry x="330" y="264" width="370" height="120" as="geometry"/>
                </mxCell>
                <mxCell id="78" value="" style="group" parent="47" vertex="1" connectable="0">
                    <mxGeometry x="30" y="34" width="70" height="80" as="geometry"/>
                </mxCell>
                <mxCell id="63" value="" style="shape=table;startSize=10;container=1;collapsible=0;childLayout=tableLayout;fontStyle=1;align=center;" parent="78" vertex="1">
                    <mxGeometry x="10" y="10" width="50" height="40" as="geometry"/>
                </mxCell>
                <mxCell id="64" value="" style="shape=tableRow;horizontal=0;startSize=0;swimlaneHead=0;swimlaneBody=0;top=0;left=0;bottom=0;right=0;collapsible=0;dropTarget=0;fillColor=none;points=[[0,0.5],[1,0.5]];portConstraint=eastwest;" parent="63" vertex="1">
                    <mxGeometry y="10" width="50" height="12" as="geometry"/>
                </mxCell>
                <mxCell id="65" value="" style="shape=partialRectangle;html=1;whiteSpace=wrap;connectable=0;fillColor=none;top=0;left=0;bottom=0;right=0;overflow=hidden;" parent="64" vertex="1">
                    <mxGeometry width="14" height="12" as="geometry">
                        <mxRectangle width="14" height="12" as="alternateBounds"/>
                    </mxGeometry>
                </mxCell>
                <mxCell id="66" value="" style="shape=partialRectangle;html=1;whiteSpace=wrap;connectable=0;fillColor=none;top=0;left=0;bottom=0;right=0;overflow=hidden;" parent="64" vertex="1">
                    <mxGeometry x="14" width="20" height="12" as="geometry">
                        <mxRectangle width="20" height="12" as="alternateBounds"/>
                    </mxGeometry>
                </mxCell>
                <mxCell id="67" value="" style="shape=partialRectangle;html=1;whiteSpace=wrap;connectable=0;fillColor=none;top=0;left=0;bottom=0;right=0;overflow=hidden;" parent="64" vertex="1">
                    <mxGeometry x="34" width="16" height="12" as="geometry">
                        <mxRectangle width="16" height="12" as="alternateBounds"/>
                    </mxGeometry>
                </mxCell>
                <mxCell id="68" value="" style="shape=tableRow;horizontal=0;startSize=0;swimlaneHead=0;swimlaneBody=0;top=0;left=0;bottom=0;right=0;collapsible=0;dropTarget=0;fillColor=none;points=[[0,0.5],[1,0.5]];portConstraint=eastwest;" parent="63" vertex="1">
                    <mxGeometry y="22" width="50" height="9" as="geometry"/>
                </mxCell>
                <mxCell id="69" value="" style="shape=partialRectangle;html=1;whiteSpace=wrap;connectable=0;fillColor=none;top=0;left=0;bottom=0;right=0;overflow=hidden;" parent="68" vertex="1">
                    <mxGeometry width="14" height="9" as="geometry">
                        <mxRectangle width="14" height="9" as="alternateBounds"/>
                    </mxGeometry>
                </mxCell>
                <mxCell id="70" value="" style="shape=partialRectangle;html=1;whiteSpace=wrap;connectable=0;fillColor=none;top=0;left=0;bottom=0;right=0;overflow=hidden;" parent="68" vertex="1">
                    <mxGeometry x="14" width="20" height="9" as="geometry">
                        <mxRectangle width="20" height="9" as="alternateBounds"/>
                    </mxGeometry>
                </mxCell>
                <mxCell id="71" value="" style="shape=partialRectangle;html=1;whiteSpace=wrap;connectable=0;fillColor=none;top=0;left=0;bottom=0;right=0;overflow=hidden;" parent="68" vertex="1">
                    <mxGeometry x="34" width="16" height="9" as="geometry">
                        <mxRectangle width="16" height="9" as="alternateBounds"/>
                    </mxGeometry>
                </mxCell>
                <mxCell id="72" value="" style="shape=tableRow;horizontal=0;startSize=0;swimlaneHead=0;swimlaneBody=0;top=0;left=0;bottom=0;right=0;collapsible=0;dropTarget=0;fillColor=none;points=[[0,0.5],[1,0.5]];portConstraint=eastwest;" parent="63" vertex="1">
                    <mxGeometry y="31" width="50" height="9" as="geometry"/>
                </mxCell>
                <mxCell id="73" value="" style="shape=partialRectangle;html=1;whiteSpace=wrap;connectable=0;fillColor=none;top=0;left=0;bottom=0;right=0;overflow=hidden;" parent="72" vertex="1">
                    <mxGeometry width="14" height="9" as="geometry">
                        <mxRectangle width="14" height="9" as="alternateBounds"/>
                    </mxGeometry>
                </mxCell>
                <mxCell id="74" value="" style="shape=partialRectangle;html=1;whiteSpace=wrap;connectable=0;fillColor=none;top=0;left=0;bottom=0;right=0;overflow=hidden;" parent="72" vertex="1">
                    <mxGeometry x="14" width="20" height="9" as="geometry">
                        <mxRectangle width="20" height="9" as="alternateBounds"/>
                    </mxGeometry>
                </mxCell>
                <mxCell id="75" value="" style="shape=partialRectangle;html=1;whiteSpace=wrap;connectable=0;fillColor=none;top=0;left=0;bottom=0;right=0;overflow=hidden;" parent="72" vertex="1">
                    <mxGeometry x="34" width="16" height="9" as="geometry">
                        <mxRectangle width="16" height="9" as="alternateBounds"/>
                    </mxGeometry>
                </mxCell>
                <mxCell id="48" value="" style="shape=image;verticalLabelPosition=bottom;labelBackgroundColor=default;verticalAlign=top;aspect=fixed;imageAspect=0;image=https://techdiw.com/wp-content/uploads/2023/02/Delta-Lake-logo-1.jpg;clipPath=inset(8.33% 33.33% 8.33% 33.33%);" parent="78" vertex="1">
                    <mxGeometry width="20" height="20" as="geometry"/>
                </mxCell>
                <mxCell id="77" value="features" style="text;html=1;align=center;verticalAlign=middle;resizable=0;points=[];autosize=1;strokeColor=none;fillColor=none;fontColor=#1A1A1A;" parent="78" vertex="1">
                    <mxGeometry y="50" width="70" height="30" as="geometry"/>
                </mxCell>
                <mxCell id="96" value="&lt;font color=&quot;#ffffff&quot;&gt;Model_A_Train_Pipline&lt;/font&gt;" style="swimlane;whiteSpace=wrap;html=1;fillColor=#BAC8D3;strokeColor=#666666;direction=west;fontColor=#333333;fillStyle=auto;" parent="1" vertex="1">
                    <mxGeometry x="331" y="77" width="550" height="140" as="geometry"/>
                </mxCell>
                <mxCell id="113" value="Model Pipline Job" style="text;html=1;align=center;verticalAlign=middle;resizable=0;points=[];autosize=1;strokeColor=none;fillColor=none;fontColor=#1A1A1A;" parent="96" vertex="1">
                    <mxGeometry x="4" width="120" height="30" as="geometry"/>
                </mxCell>
                <mxCell id="118" value="FeatureCreate" style="whiteSpace=wrap;html=1;labelBackgroundColor=none;fillStyle=auto;strokeColor=#BAC8D3;fontColor=#1A1A1A;fillColor=#BAC8D3;" parent="96" vertex="1">
                    <mxGeometry x="20" y="45" width="100" height="56.5" as="geometry"/>
                </mxCell>
                <mxCell id="119" value="Modeling" style="whiteSpace=wrap;html=1;labelBackgroundColor=none;fillStyle=auto;strokeColor=#BAC8D3;fontColor=#1A1A1A;fillColor=#BAC8D3;" parent="96" vertex="1">
                    <mxGeometry x="150" y="45" width="100" height="56.5" as="geometry"/>
                </mxCell>
                <mxCell id="120" value="Model deployment test" style="whiteSpace=wrap;html=1;labelBackgroundColor=none;fillStyle=auto;strokeColor=#BAC8D3;fontColor=#1A1A1A;fillColor=#BAC8D3;" parent="96" vertex="1">
                    <mxGeometry x="410" y="45" width="100" height="56.5" as="geometry"/>
                </mxCell>
                <mxCell id="121" value="Model &lt;br&gt;inference&amp;nbsp; test" style="whiteSpace=wrap;html=1;labelBackgroundColor=none;fillStyle=auto;strokeColor=#BAC8D3;fontColor=#1A1A1A;fillColor=#BAC8D3;" parent="96" vertex="1">
                    <mxGeometry x="280" y="45" width="100" height="56.5" as="geometry"/>
                </mxCell>
                <mxCell id="122" value="&lt;font color=&quot;#ffffff&quot;&gt;PJ_modelA_schema&lt;/font&gt;" style="swimlane;whiteSpace=wrap;html=1;fillColor=#bac8d3;strokeColor=#23445d;" parent="1" vertex="1">
                    <mxGeometry x="750" y="264" width="130" height="121" as="geometry"/>
                </mxCell>
                <mxCell id="159" value="" style="shape=image;verticalLabelPosition=bottom;labelBackgroundColor=default;verticalAlign=top;aspect=fixed;imageAspect=0;image=data:image/png,iVBORw0KGgoAAAANSUhEUgAAAEEAAAA/CAYAAAC/36X0AAABYmlDQ1BJQ0MgUHJvZmlsZQAAKJFtkDtLA1EQhc9qwkK0CMEHiEUai4X4WoPEMsZFhRRLohgtlN2bmBiSeNmsiKWgjT9A/AXa2EewCZY24gMFtbSwF7bRsM5N1CTqHYbzcZgZ5g7Q4Tc4L3gAFEu2lZidDqaWV4LyK3yQ0YdR9BuszKO6HqcSfGv7c+4hCb0dFrPO8pp3//kyoJzcrD1dr+7+rW97vnSmzEg/KCcZt2xAChPr2zYXvEfcY9FSxEeCsw0+FWw2uFqvWUjEiO+I/SxnpIlfiENmi59t4WJhi33tILbvzpQWk6QDlIOYgYY4RRBJIpViHFOYQ4ru9H9fuN4XwyY4dmBhA1nkYNOEKDkcBWSI51ECwwhCxCrGKMPi3r/v2PSYBqgmwVXTyx8A5730hUjTU2QgQP7FEDcs4+e6kuMpr0+oDe6qAN5D131bAmQFqD247nvFdWvHQOcjUHU+Aax3Y1Htm0kaAAAAOGVYSWZNTQAqAAAACAABh2kABAAAAAEAAAAaAAAAAAACoAIABAAAAAEAAABBoAMABAAAAAEAAAA/AAAAAJm93NcAABAiSURBVHgB7VtpWFXXFV3M86CCCMigIKLggDiLAs7G1FSjNURNzBy/tCbN16Zp035Ja2ObNm1tOiQdTGIGTTDGOc4G4xgHEEdUQEAUEARRUCahax96Xy6P95je0/wI2+9x77v33PPO3Xefvdda52pTdauiAd9xs/2O37+6/U4n0A2dTuh0QmMy6IwE+sG+0Rffzt/q2lpU3LqNmro7cHZ0gLuLMxzsmw+ptq4ON9iuju1cnBzh4eoCGxsbqw26+S9areuWO8orKsaXaaeQnnkRlbeq0L2rN2L79sbYQf3RzdPTcPHN27ex62g6DpzKoMOq4O/bFVOGx2B4ZB9DG0t3vpXpUFR2HX9fuwXLN+2EHZ/8wD69cO3GTbz1+RdY/eUBVPDGxe7U12MPHfXWms2oqq1D3+CeSLtwEa8uX4VLV4stvXfD9Xc9Esp4c1lXCnH1+g0Vzj7eHjiVnYe089n4yUMzEDewP7zd3XDlWik+3JaC7UeOI35wNPqF9EQNb1yioE9QIF5+eCb8GC1jB0biyT++jR1H0vH49ImGG7Fk56454WpZOT5LOYDdaSdRwCdfy/lsB85jWxvcrqlBNJ/q+NiBzAMuavw9fX0wPmYAUtLP4ERWDiJ6BqChoYG54BaCe/jBv1tXlQci6RxnR0cUs09r2V1xwvlLl/HXzzZj/8lzCPLtguERYZjGeezj7YVDZ85h44GjOJ2Tj21fp+HBhNGGe/F0c1WJUaZLfUM97Oxs0SugB3PHaaTQmcOYB5Z/sRMljK4R/fsarrN0x+pOyLxcgDdWrkVGbj5+ljQDc8bHwd7OzjDOIX3D8APe+NKP1mDJB6vhzxAfzSmhNwaAMicHB8xh2x1HT2DRsv/A09kFpZUVmDl6GBKGDNBfYtG+VZ1wvaISybv3IbewGC/Pm8UsPqSJA7SR+nTxxiuPzkHmlSL8btVafNgrCN4eHtppw1ZK4/6TZ+Fob4d5dKZ/1y6ICu2JoVERhjb1TJ6VVdW4XV3DKLKDRJOdbfvyvVWdkF98DXuOn8HUETFI4Px2dDDfvZTB+RPj8PLyT7DlYCqSJscbbkzbOX/pCpJTDqrcsfjB6XBzdtZOqa0kTskfu4+dQB6rhThg7KAoTGCUODKK2mrtc1kLvdbduaMGVMNtLHOAABrNpORt/TpVRYh2TLZTRsTC19MDucQMxiY54T8bd8DVyQkz40Y0c4C0zy8uxt9YPlNZNkOZPMsYia9ziqUcP2XcXYvfreiEepy6mMun4YKevt2a/GgNkeG7m3fhKzW4b+QLL5bG3zz+EKaOHNKkfeMXG0RzmjwyeRzxQWCz8+L0g6fP40ppGRZOS8Di2dPxyoLZ6O3fHZ/u2tesfUsHzMdrS1eZOsdsVnm7Gm6EvlL39ebq5IxeHNymQ8cQE9Eb0b1DDKcF/ZkyW8LipEnj1ClTELm+vgEF18pYQexU+ZTwlzIb4NMN5/LyTXVp9pjVIoFFnKHrSEdUQRKk3pzICx6dmqjAz5+TN0BKqN4a0KBKov6Y7EsOMM4DWhtJgqOYIKuZEFPPZeEWk+Phs+dxgNEhWKI9ZrVIsGdNHxAWiv3EAZeulhDlBRjGIU+yX2gQfjF/Fl57PxnzlixDZLA/IgIDFJKUJzorfiRi+vQ2XNPaTlVNLY6czSTSLMPSVeuIH3ahtOIWAlhyXyQSbY9Z0Ql2JDXhWLnjKxw9n4Xh/SMUK9QGI44Y1i8C77z4DLZwWqQTOqdm5aKbhxvbhnO6+GlNW90K83xvyy6s2XMITxE6x5B7CD7x7eKJxCED0cXdvdU+9A2s5gTp1MPVlQjPD18cSsU4ssGRCtU1IJt4INjPV2GGIG4fnTZB1fQa4gApo7Y2jbPybM4l/dhM7pcSLX6wLYVEaz+SJozFwvsmKGdPGDrIZPu2HLSaE+QGvjpxBhcuF6KYZEm4g5S50vKbWLJiNSbGDsCIqL5wYCJLITMM7uFLMhRlcEBbBlt8vRwfbduDdfsOYz5xxYIpCU2irS19mGpjsROE5GwmF3hv25coKClFIMvjU/dPwABWABv+k+wd7OejKPJWMkR7JrRiOuip6ZM4nm/KpfHgzlzMw16iRb2JBpGemcskm4C5E+LMJk39NW3Zt9gJu4jWfvvxGriT2f384VmIDgtBdxIlKZViXTzc8fzs+5GRdxnvcx6nXcjBc9+fgglkkHpOYTxY0ReOZWQ2OVx7p54OiMcMM+CpSeN2fLHICTI/P9q+R+GDZc89hqFMjKZurCtR4UgmSg865vckV4czsgiQYuGuQ5XGYx7OfBJD5Glsbs5O7YLExteb+m6RE7aSCh+5kI35JDcjOd/FhNDkFV1VHKKaZSyROD4ssAdsSWqkhM6bOJZK0RfIYu7wI5EyBYSkHycmTNEc22MyuSoJ0bcfTmOZvka5LoyfcDgTv7SkSHbYCdUURoS8+DLcn54h8xsQKLvj6HG8QWZYV1ePeh57h/h/8axpWECwJOxuWL8+VJQeQJ+e/s0cIACoq6c7p5ITr2xp2PJrze0iFawX3lqOfKpUARRhVpLRThs2GItmTlMOb35F45EOO0EYY8blK+jNkujyf3ZXVHoda8j6wgP88Rx/2IEAauXOfXh743a260FRxROenAIhrAyFbFvHOV5FZ4qAKlNDEmkitYXuXbxQXVuD0xcLVSkVMia0WlBhS/b+lt1Kuf7TswsxOCIUnxNHiICTnpmDiSyhAsVNWYedUEF4XFVdC28/N0PnwunLK28pIURDf0njG/Dxrr1485N1CPTpqoCNsMYcag6TObCCkjKcIPEayKkSwiqy5/hphR3CGClLP1yteMig8FCUlN/AhfxCU/dgOHaaQs4kTr9ElmOxuIH9sP1YukKwdQqTOBja6nc67ASBybbUC2s5BTQlSMqfrBtkF1xFOfmD8Pt0okJ3Rsr3x41QBMePlSOSEPpG5W3SX1+VVKPDQ+ArFYVzV2aBB3VHqTDzpySq3ODLCBIHx/Ztykn0NyL7kqRz6GDBE5KMi1iKq/mguhCVtiS0dNgJgWRrwT4+yC8qUdK4DEIGPj4mGitJZYU/uJA4pRBA3Td8MB6eOE4JpEKrpfzJIEU+05uwv4PkAw+MHgqh2TPGDNOfbnXf2dEev3r3EyxmXggiXjnLsuzj5UFKHqzwirkO7H75yi9eM3eypePCDEX73556gjfvqcCRREHvQD/0ZNhfKblGxNig9MQn7p/IZNcosqRSal+y4jPiezdFr/XVIZ+O+2T3fkSSfPUPCVaR1tIYjM8FdfdBLHlEOYmUqNFxA/op9hrGHCVRa846HAkyeNECNlEae4vK8lDqBLI+4E3yMp1CqHyM7frNCq4XHGeSq1XVQcpmM/v/WIVey+KLsUly0ztOf14eQiwVafm0xzrsBPmRsEB/PEZV5xWG4At/fw///PHTCDXBBgVayzxN5lPeQmyxcFoiGZ9Xi+M8nZ2LNXsPNWkjDnhgzHAMCu+lcEeTkxZ8scgJ8rszx43Ciq0pKBTCRLVHTBGnGxVqsVWU4LKbldhKAKO0Pz7pfeQEAVxTnDR0sEmEKX1cr6xkkiuRXYMJKTvG6STwfFR0pNmIMFzQxh2LnSBKUhGfcmSQP/NBD/WzZQx7obtpRJM3WQVk9UlI1DP3T4IrYe+u1JP4S/JG9OX0EfxgykZFRSq0pz8nlPwf67bi1yuS8VLSTIxnOTQ3NfTXtbZvsRMkzMuIDaQMaSagx8PVmfM+QGEDwQf9KXmJliCDDqXe+KO/vYtDp8+ZdYKdrR1hc9PqIVjiJ3Nn4M1PN+B1Lt4IoJo6Yki76Lg2Rv3WYicILhdkWFlVY+hXhNaHyCcEP8iTNyZVEYyApMTRajHFcBF3JBFqU0p/XL8vjv3VI3PwOzrhz8mbcIeoU4BZFpWlAJZFyVPmkKG+H/2+xU7owVWhkO6+FFMKiBYr4eVGBMmsLyqTORNi9ASnhj2ftt4kgcqnNRNJ/9WFc/EbTovXKNhIuRakKgwzfkAklj69QIG21vrRzpuoUdqptm3lKY8mKcoll1hLrN76LRAUckrIoop+hUquu1xcCqHnbTHhF88+MBmedKiscC9b9Ahmxw3HxoNpzDfr29KFoY3FTpCe5pMh+nl6KdkrK/+KoXNtR56ukKuzuZcUEdKOa1sBVVn5BWpdoojSnGZynSmsIOcFrktOsSflfmbGZEziuudL8x7E1GEDWX0ytC7atLWKEyTDi6SWTR3hnfXbqCcUK11BG4Gow8tWb8C/SavLWDq1m5OtVBJ5YeOj7SnIpsbgzpAW40oEbzIDJ7Nz1Pdmfxg6NhRoRbPUok8guexrwm2za8wcsDgnaP3OmxzPtcFr2Mw1R3m1Znb8KGoH4UoHlJXlQ2cu4IfUFboRYucUXuUS2jlVOi8wAs5QpPVkNZk+agg28Xox+gf/3bSDmqQDljyRRHrtrf2U2gqBG9G/DxHrUSRTeS6ghiA44ggluUenJDRp29qXDnMH447liUjdl6f7Fd822ccXrbILipDJ6bHx4DGyRE/O4akqF2RT/NjJ13Ay+eSF3Y2iKiXvIQj2F8U6JjyUS/AhSqdcv/+IWt8UEqTHBLIvfES0BknKaVyFKuCUS+CrPklUr6QqtdWsFgkyqADigae+N1lpA/Lu0QmKqnKz1zkdnpicYFijlGWy5+d8T5U3V2dHVhRXpRuepFKltzEkQKOj++LzvYcVSZOV56AePmSnjTco1WAacYK8wXKDpMnZyUFR8vbKclZzggxeHCEYQZTkURy8aIwl5eV45s1/NWFx5tYYJQnKNHCici26gryzOJd440Xykhf+uYIva9gjig5cNGMK4ri4IyZ0XMCYfDpqVkmMxj8uZdOTOEGEkn6kxFLX85gvhFO0ZNe4UGPP6RFEiC1YQ1UNhvqt6mrcN2wQHudcv0MI/tK/PkAhc4C17K44wXhw8TFROEYesf3wcbMlT5Sor7mq3J0iiK+XlwSCiqQtXNIbQ7K05Ml5WMwp9MazC1BFR6xq5zsIxmPSf78nThAI3Y9JU6j00YwLTQRTSaRXKYCsJW0+wIohL2wIENLsDvGAhLxMEzEX5gFXThcph9Yyq+YEc4MSzfBpwuS3N2zDH1at58uaUQgn43TmzQlOkLJ2KicPiXzPST6a7CaapfACKZsf79yj4PneE2eVQj2WIqq1zOZe/fcfkczPUg2Wui6Lt9U1daqcOjnYKTVKFOL4QdFKltduTp7+5ZISyvZ71TvQVRRbJfEKhX6IK9KyzmkNu2dOkMFK6MvcL2ECrKyqUusO8naL1HoBQ3ouod2cJMcbJEeXqVmKE2RtUxZ9tWjR2lmyvadOsGSgd/Pae5IY7+YNWKPvTifQi51O6HRC42TqjITOSOiMhEYPWDsSqsj2RHE2Zos1fBGj9ObNZscNozCxIyxx/6mmb6/pm8lbMcdJygr5grelZrWcIIOSlzFm/vIPOEwpTTPRCH769go8+Oqb6v1G7XhrW1m9fuPjtWabyf+pFPlN2llq/wMnkUCr72YtZgAAAABJRU5ErkJggg==;clipPath=inset(0% 0% 0% 0% round 50%);" parent="122" vertex="1">
                    <mxGeometry x="37.66" y="44" width="54.68" height="52.997538461538454" as="geometry"/>
                </mxCell>
                <mxCell id="160" value="model registory" style="text;html=1;align=center;verticalAlign=middle;resizable=0;points=[];autosize=1;strokeColor=none;fillColor=none;fontColor=#1A1A1A;" parent="122" vertex="1">
                    <mxGeometry x="10" y="91" width="110" height="30" as="geometry"/>
                </mxCell>
                <mxCell id="161" value="" style="edgeStyle=entityRelationEdgeStyle;html=1;fontColor=#1A1A1A;" parent="1" source="120" target="159" edge="1">
                    <mxGeometry relative="1" as="geometry">
                        <mxPoint x="810" y="384" as="targetPoint"/>
                    </mxGeometry>
                </mxCell>
                <mxCell id="162" style="edgeStyle=entityRelationEdgeStyle;html=1;exitX=1;exitY=0.5;exitDx=0;exitDy=0;entryX=0;entryY=0.5;entryDx=0;entryDy=0;fontColor=#1A1A1A;" parent="1" source="4" target="118" edge="1">
                    <mxGeometry relative="1" as="geometry"/>
                </mxCell>
                <mxCell id="165" style="edgeStyle=entityRelationEdgeStyle;html=1;fontColor=#1A1A1A;exitX=0.5;exitY=1;exitDx=0;exitDy=0;" parent="1" source="118" edge="1">
                    <mxGeometry relative="1" as="geometry">
                        <mxPoint x="330" y="334" as="targetPoint"/>
                    </mxGeometry>
                </mxCell>
                <mxCell id="201" value="&lt;font color=&quot;#ffffff&quot;&gt;Model_A_Inference_Pipline&lt;/font&gt;" style="swimlane;whiteSpace=wrap;html=1;fillColor=#BAC8D3;strokeColor=#666666;direction=west;fontColor=#333333;fillStyle=auto;" parent="1" vertex="1">
                    <mxGeometry x="330" y="431" width="550" height="140" as="geometry"/>
                </mxCell>
                <mxCell id="202" value="Model Inference Job" style="text;html=1;align=center;verticalAlign=middle;resizable=0;points=[];autosize=1;strokeColor=none;fillColor=none;fontColor=#1A1A1A;" parent="201" vertex="1">
                    <mxGeometry x="-1" width="130" height="30" as="geometry"/>
                </mxCell>
                <mxCell id="203" value="FeatureCreate" style="whiteSpace=wrap;html=1;labelBackgroundColor=none;fillStyle=auto;strokeColor=#BAC8D3;fontColor=#1A1A1A;fillColor=#BAC8D3;" parent="201" vertex="1">
                    <mxGeometry x="20" y="45" width="100" height="56.5" as="geometry"/>
                </mxCell>
                <mxCell id="204" value="inference" style="whiteSpace=wrap;html=1;labelBackgroundColor=none;fillStyle=auto;strokeColor=#BAC8D3;fontColor=#1A1A1A;fillColor=#BAC8D3;" parent="201" vertex="1">
                    <mxGeometry x="150" y="45" width="100" height="56.5" as="geometry"/>
                </mxCell>
                <mxCell id="263" value="" style="group" parent="1" vertex="1" connectable="0">
                    <mxGeometry x="465" y="298" width="80" height="80" as="geometry"/>
                </mxCell>
                <mxCell id="264" value="" style="shape=table;startSize=10;container=1;collapsible=0;childLayout=tableLayout;fontStyle=1;align=center;" parent="263" vertex="1">
                    <mxGeometry x="10" y="10" width="50" height="40" as="geometry"/>
                </mxCell>
                <mxCell id="265" value="" style="shape=tableRow;horizontal=0;startSize=0;swimlaneHead=0;swimlaneBody=0;top=0;left=0;bottom=0;right=0;collapsible=0;dropTarget=0;fillColor=none;points=[[0,0.5],[1,0.5]];portConstraint=eastwest;" parent="264" vertex="1">
                    <mxGeometry y="10" width="50" height="12" as="geometry"/>
                </mxCell>
                <mxCell id="266" value="" style="shape=partialRectangle;html=1;whiteSpace=wrap;connectable=0;fillColor=none;top=0;left=0;bottom=0;right=0;overflow=hidden;" parent="265" vertex="1">
                    <mxGeometry width="14" height="12" as="geometry">
                        <mxRectangle width="14" height="12" as="alternateBounds"/>
                    </mxGeometry>
                </mxCell>
                <mxCell id="267" value="" style="shape=partialRectangle;html=1;whiteSpace=wrap;connectable=0;fillColor=none;top=0;left=0;bottom=0;right=0;overflow=hidden;" parent="265" vertex="1">
                    <mxGeometry x="14" width="20" height="12" as="geometry">
                        <mxRectangle width="20" height="12" as="alternateBounds"/>
                    </mxGeometry>
                </mxCell>
                <mxCell id="268" value="" style="shape=partialRectangle;html=1;whiteSpace=wrap;connectable=0;fillColor=none;top=0;left=0;bottom=0;right=0;overflow=hidden;" parent="265" vertex="1">
                    <mxGeometry x="34" width="16" height="12" as="geometry">
                        <mxRectangle width="16" height="12" as="alternateBounds"/>
                    </mxGeometry>
                </mxCell>
                <mxCell id="269" value="" style="shape=tableRow;horizontal=0;startSize=0;swimlaneHead=0;swimlaneBody=0;top=0;left=0;bottom=0;right=0;collapsible=0;dropTarget=0;fillColor=none;points=[[0,0.5],[1,0.5]];portConstraint=eastwest;" parent="264" vertex="1">
                    <mxGeometry y="22" width="50" height="9" as="geometry"/>
                </mxCell>
                <mxCell id="270" value="" style="shape=partialRectangle;html=1;whiteSpace=wrap;connectable=0;fillColor=none;top=0;left=0;bottom=0;right=0;overflow=hidden;" parent="269" vertex="1">
                    <mxGeometry width="14" height="9" as="geometry">
                        <mxRectangle width="14" height="9" as="alternateBounds"/>
                    </mxGeometry>
                </mxCell>
                <mxCell id="271" value="" style="shape=partialRectangle;html=1;whiteSpace=wrap;connectable=0;fillColor=none;top=0;left=0;bottom=0;right=0;overflow=hidden;" parent="269" vertex="1">
                    <mxGeometry x="14" width="20" height="9" as="geometry">
                        <mxRectangle width="20" height="9" as="alternateBounds"/>
                    </mxGeometry>
                </mxCell>
                <mxCell id="272" value="" style="shape=partialRectangle;html=1;whiteSpace=wrap;connectable=0;fillColor=none;top=0;left=0;bottom=0;right=0;overflow=hidden;" parent="269" vertex="1">
                    <mxGeometry x="34" width="16" height="9" as="geometry">
                        <mxRectangle width="16" height="9" as="alternateBounds"/>
                    </mxGeometry>
                </mxCell>
                <mxCell id="273" value="" style="shape=tableRow;horizontal=0;startSize=0;swimlaneHead=0;swimlaneBody=0;top=0;left=0;bottom=0;right=0;collapsible=0;dropTarget=0;fillColor=none;points=[[0,0.5],[1,0.5]];portConstraint=eastwest;" parent="264" vertex="1">
                    <mxGeometry y="31" width="50" height="9" as="geometry"/>
                </mxCell>
                <mxCell id="274" value="" style="shape=partialRectangle;html=1;whiteSpace=wrap;connectable=0;fillColor=none;top=0;left=0;bottom=0;right=0;overflow=hidden;" parent="273" vertex="1">
                    <mxGeometry width="14" height="9" as="geometry">
                        <mxRectangle width="14" height="9" as="alternateBounds"/>
                    </mxGeometry>
                </mxCell>
                <mxCell id="275" value="" style="shape=partialRectangle;html=1;whiteSpace=wrap;connectable=0;fillColor=none;top=0;left=0;bottom=0;right=0;overflow=hidden;" parent="273" vertex="1">
                    <mxGeometry x="14" width="20" height="9" as="geometry">
                        <mxRectangle width="20" height="9" as="alternateBounds"/>
                    </mxGeometry>
                </mxCell>
                <mxCell id="276" value="" style="shape=partialRectangle;html=1;whiteSpace=wrap;connectable=0;fillColor=none;top=0;left=0;bottom=0;right=0;overflow=hidden;" parent="273" vertex="1">
                    <mxGeometry x="34" width="16" height="9" as="geometry">
                        <mxRectangle width="16" height="9" as="alternateBounds"/>
                    </mxGeometry>
                </mxCell>
                <mxCell id="277" value="" style="shape=image;verticalLabelPosition=bottom;labelBackgroundColor=default;verticalAlign=top;aspect=fixed;imageAspect=0;image=https://techdiw.com/wp-content/uploads/2023/02/Delta-Lake-logo-1.jpg;clipPath=inset(8.33% 33.33% 8.33% 33.33%);" parent="263" vertex="1">
                    <mxGeometry width="20" height="20" as="geometry"/>
                </mxCell>
                <mxCell id="278" value="output_result" style="text;html=1;align=center;verticalAlign=middle;resizable=0;points=[];autosize=1;strokeColor=none;fillColor=none;fontColor=#1A1A1A;" parent="263" vertex="1">
                    <mxGeometry x="-10" y="50" width="90" height="30" as="geometry"/>
                </mxCell>
                <mxCell id="281" style="edgeStyle=entityRelationEdgeStyle;html=1;exitX=0.5;exitY=0;exitDx=0;exitDy=0;fontColor=#FFFFFF;" parent="1" source="204" target="278" edge="1">
                    <mxGeometry relative="1" as="geometry"/>
                </mxCell>
                <mxCell id="282" value="修正点&lt;br&gt;&lt;div style=&quot;&quot;&gt;&lt;ul&gt;&lt;li&gt;特徴量生成パイプラインを整備&lt;/li&gt;&lt;li&gt;そのうえで特徴量スキーマを学習用と予測用で分けるかどうかを整理&lt;/li&gt;&lt;/ul&gt;&lt;/div&gt;" style="rounded=0;whiteSpace=wrap;html=1;align=left;" parent="1" vertex="1">
                    <mxGeometry x="680" y="610" width="470" height="110" as="geometry"/>
                </mxCell>
                <mxCell id="283" style="edgeStyle=none;html=1;entryX=1;entryY=0.5;entryDx=0;entryDy=0;" parent="1" source="159" target="204" edge="1">
                    <mxGeometry relative="1" as="geometry"/>
                </mxCell>
                <mxCell id="341" value="ポイント&lt;br&gt;&lt;div style=&quot;&quot;&gt;&lt;ul&gt;&lt;li&gt;&lt;span style=&quot;background-color: initial;&quot;&gt;スクラップ＆ビルドを行う仕掛けにしたいため、PJは同一だとしてもモデル単位でスキーマを分けたい&lt;/span&gt;&lt;/li&gt;&lt;li&gt;ただし案件で”&lt;span style=&quot;background-color: initial;&quot;&gt;蓄積&lt;/span&gt;&lt;span style=&quot;background-color: initial;&quot;&gt;”運用をおこなうデータに関しては案件ごとの共通スキーマを用意する想定&lt;/span&gt;&lt;/li&gt;&lt;li&gt;ここで蓄積するデータに関してはDMTに移管したいと考える&lt;/li&gt;&lt;li&gt;ここで言うモデル単位とは特徴量が異なる場合でも別スキーマでわかる運用にしたいと考えている&lt;/li&gt;&lt;ul&gt;&lt;li&gt;旧戻しおよびA/Bテストを並行して実施することが出来るため&lt;/li&gt;&lt;/ul&gt;&lt;li&gt;&lt;span style=&quot;background-color: initial;&quot;&gt;モデル学習についてもすべてJobで用意し、デプロイするタイミングでJobを実行しモデルを作成する運用&lt;/span&gt;&lt;/li&gt;&lt;li&gt;ここでのモデル学習パイプラインは再学習時も活用出来るようするイメージ&lt;/li&gt;&lt;/ul&gt;&lt;/div&gt;" style="rounded=0;whiteSpace=wrap;html=1;align=left;" parent="1" vertex="1">
                    <mxGeometry x="40" y="610" width="620" height="210" as="geometry"/>
                </mxCell>
                <mxCell id="343" value="新規モデル構築時" style="text;html=1;align=center;verticalAlign=middle;resizable=0;points=[];autosize=1;strokeColor=none;fillColor=none;" vertex="1" parent="1">
                    <mxGeometry x="70" width="120" height="30" as="geometry"/>
                </mxCell>
                <mxCell id="KnwQVms3fNyvqB5uXFuy-344" value="DMT_layer" style="text;html=1;align=center;verticalAlign=middle;resizable=0;points=[];autosize=1;strokeColor=none;fillColor=none;" vertex="1" parent="1">
                    <mxGeometry x="90" y="50" width="80" height="30" as="geometry"/>
                </mxCell>
                <mxCell id="KnwQVms3fNyvqB5uXFuy-346" value="DS_layer" style="text;html=1;align=center;verticalAlign=middle;resizable=0;points=[];autosize=1;strokeColor=none;fillColor=none;" vertex="1" parent="1">
                    <mxGeometry x="325" y="50" width="70" height="30" as="geometry"/>
                </mxCell>
                <mxCell id="ZNrLW7JniZBZMRtx1FIl-343" value="悩み&lt;br&gt;&lt;div style=&quot;&quot;&gt;&lt;ul&gt;&lt;li&gt;&lt;span style=&quot;background-color: initial;&quot;&gt;予測結果を保持するoutputテーブルをどこに置くべきかが悩み&lt;/span&gt;&lt;/li&gt;&lt;li&gt;モデル毎に管理するスキーマにおいてしまうと、再構築を行う際に結果が全部消えてしまうので、common_schemaにおいたほうが良いか？&lt;/li&gt;&lt;li&gt;後で消せなくなる？でもそんな昔まで精度振り返ることはあるか？&lt;/li&gt;&lt;li&gt;bizlendingだとあり得る&lt;/li&gt;&lt;/ul&gt;&lt;/div&gt;" style="rounded=0;whiteSpace=wrap;html=1;align=left;" vertex="1" parent="1">
                    <mxGeometry x="40" y="873" width="470" height="147" as="geometry"/>
                </mxCell>
                <mxCell id="WMav9wNIIoWjz00ohEl8-401" value="" style="shape=table;startSize=10;container=1;collapsible=0;childLayout=tableLayout;fontStyle=1;align=center;" vertex="1" parent="1">
                    <mxGeometry x="158" y="498.5" width="50" height="40" as="geometry"/>
                </mxCell>
                <mxCell id="WMav9wNIIoWjz00ohEl8-402" value="" style="shape=tableRow;horizontal=0;startSize=0;swimlaneHead=0;swimlaneBody=0;top=0;left=0;bottom=0;right=0;collapsible=0;dropTarget=0;fillColor=none;points=[[0,0.5],[1,0.5]];portConstraint=eastwest;" vertex="1" parent="WMav9wNIIoWjz00ohEl8-401">
                    <mxGeometry y="10" width="50" height="12" as="geometry"/>
                </mxCell>
                <mxCell id="WMav9wNIIoWjz00ohEl8-403" value="" style="shape=partialRectangle;html=1;whiteSpace=wrap;connectable=0;fillColor=none;top=0;left=0;bottom=0;right=0;overflow=hidden;" vertex="1" parent="WMav9wNIIoWjz00ohEl8-402">
                    <mxGeometry width="14" height="12" as="geometry">
                        <mxRectangle width="14" height="12" as="alternateBounds"/>
                    </mxGeometry>
                </mxCell>
                <mxCell id="WMav9wNIIoWjz00ohEl8-404" value="" style="shape=partialRectangle;html=1;whiteSpace=wrap;connectable=0;fillColor=none;top=0;left=0;bottom=0;right=0;overflow=hidden;" vertex="1" parent="WMav9wNIIoWjz00ohEl8-402">
                    <mxGeometry x="14" width="20" height="12" as="geometry">
                        <mxRectangle width="20" height="12" as="alternateBounds"/>
                    </mxGeometry>
                </mxCell>
                <mxCell id="WMav9wNIIoWjz00ohEl8-405" value="" style="shape=partialRectangle;html=1;whiteSpace=wrap;connectable=0;fillColor=none;top=0;left=0;bottom=0;right=0;overflow=hidden;" vertex="1" parent="WMav9wNIIoWjz00ohEl8-402">
                    <mxGeometry x="34" width="16" height="12" as="geometry">
                        <mxRectangle width="16" height="12" as="alternateBounds"/>
                    </mxGeometry>
                </mxCell>
                <mxCell id="WMav9wNIIoWjz00ohEl8-406" value="" style="shape=tableRow;horizontal=0;startSize=0;swimlaneHead=0;swimlaneBody=0;top=0;left=0;bottom=0;right=0;collapsible=0;dropTarget=0;fillColor=none;points=[[0,0.5],[1,0.5]];portConstraint=eastwest;" vertex="1" parent="WMav9wNIIoWjz00ohEl8-401">
                    <mxGeometry y="22" width="50" height="9" as="geometry"/>
                </mxCell>
                <mxCell id="WMav9wNIIoWjz00ohEl8-407" value="" style="shape=partialRectangle;html=1;whiteSpace=wrap;connectable=0;fillColor=none;top=0;left=0;bottom=0;right=0;overflow=hidden;" vertex="1" parent="WMav9wNIIoWjz00ohEl8-406">
                    <mxGeometry width="14" height="9" as="geometry">
                        <mxRectangle width="14" height="9" as="alternateBounds"/>
                    </mxGeometry>
                </mxCell>
                <mxCell id="WMav9wNIIoWjz00ohEl8-408" value="" style="shape=partialRectangle;html=1;whiteSpace=wrap;connectable=0;fillColor=none;top=0;left=0;bottom=0;right=0;overflow=hidden;" vertex="1" parent="WMav9wNIIoWjz00ohEl8-406">
                    <mxGeometry x="14" width="20" height="9" as="geometry">
                        <mxRectangle width="20" height="9" as="alternateBounds"/>
                    </mxGeometry>
                </mxCell>
                <mxCell id="WMav9wNIIoWjz00ohEl8-409" value="" style="shape=partialRectangle;html=1;whiteSpace=wrap;connectable=0;fillColor=none;top=0;left=0;bottom=0;right=0;overflow=hidden;" vertex="1" parent="WMav9wNIIoWjz00ohEl8-406">
                    <mxGeometry x="34" width="16" height="9" as="geometry">
                        <mxRectangle width="16" height="9" as="alternateBounds"/>
                    </mxGeometry>
                </mxCell>
                <mxCell id="WMav9wNIIoWjz00ohEl8-410" value="" style="shape=tableRow;horizontal=0;startSize=0;swimlaneHead=0;swimlaneBody=0;top=0;left=0;bottom=0;right=0;collapsible=0;dropTarget=0;fillColor=none;points=[[0,0.5],[1,0.5]];portConstraint=eastwest;" vertex="1" parent="WMav9wNIIoWjz00ohEl8-401">
                    <mxGeometry y="31" width="50" height="9" as="geometry"/>
                </mxCell>
                <mxCell id="WMav9wNIIoWjz00ohEl8-411" value="" style="shape=partialRectangle;html=1;whiteSpace=wrap;connectable=0;fillColor=none;top=0;left=0;bottom=0;right=0;overflow=hidden;" vertex="1" parent="WMav9wNIIoWjz00ohEl8-410">
                    <mxGeometry width="14" height="9" as="geometry">
                        <mxRectangle width="14" height="9" as="alternateBounds"/>
                    </mxGeometry>
                </mxCell>
                <mxCell id="WMav9wNIIoWjz00ohEl8-412" value="" style="shape=partialRectangle;html=1;whiteSpace=wrap;connectable=0;fillColor=none;top=0;left=0;bottom=0;right=0;overflow=hidden;" vertex="1" parent="WMav9wNIIoWjz00ohEl8-410">
                    <mxGeometry x="14" width="20" height="9" as="geometry">
                        <mxRectangle width="20" height="9" as="alternateBounds"/>
                    </mxGeometry>
                </mxCell>
                <mxCell id="WMav9wNIIoWjz00ohEl8-413" value="" style="shape=partialRectangle;html=1;whiteSpace=wrap;connectable=0;fillColor=none;top=0;left=0;bottom=0;right=0;overflow=hidden;" vertex="1" parent="WMav9wNIIoWjz00ohEl8-410">
                    <mxGeometry x="34" width="16" height="9" as="geometry">
                        <mxRectangle width="16" height="9" as="alternateBounds"/>
                    </mxGeometry>
                </mxCell>
                <mxCell id="WMav9wNIIoWjz00ohEl8-414" value="" style="shape=image;verticalLabelPosition=bottom;labelBackgroundColor=default;verticalAlign=top;aspect=fixed;imageAspect=0;image=https://techdiw.com/wp-content/uploads/2023/02/Delta-Lake-logo-1.jpg;clipPath=inset(8.33% 33.33% 8.33% 33.33%);" vertex="1" parent="1">
                    <mxGeometry x="148" y="488.5" width="20" height="20" as="geometry"/>
                </mxCell>
            </root>
        </mxGraphModel>
    </diagram>
    <diagram name="add model" id="y0qmUkFxvL6j2OR8ZNww">
        <mxGraphModel dx="2026" dy="1058" grid="1" gridSize="10" guides="1" tooltips="1" connect="1" arrows="1" fold="1" page="1" pageScale="1" pageWidth="1169" pageHeight="827" math="0" shadow="0">
            <root>
                <mxCell id="SVdXYpih-2KkBBQ6i95Y-0"/>
                <mxCell id="SVdXYpih-2KkBBQ6i95Y-1" parent="SVdXYpih-2KkBBQ6i95Y-0"/>
                <mxCell id="aWxg0yhKqH9qwheQMupa-16" style="edgeStyle=orthogonalEdgeStyle;curved=1;html=1;exitX=1;exitY=0.5;exitDx=0;exitDy=0;entryX=1;entryY=0.5;entryDx=0;entryDy=0;fontColor=#000000;" edge="1" parent="SVdXYpih-2KkBBQ6i95Y-1" source="GQbEOrHIZVKjRxsu-4cN-0" target="v0FQVUiF5tZoUybMBT4n-17">
                    <mxGeometry relative="1" as="geometry"/>
                </mxCell>
                <mxCell id="aWxg0yhKqH9qwheQMupa-17" style="edgeStyle=orthogonalEdgeStyle;curved=1;html=1;exitX=1;exitY=0.5;exitDx=0;exitDy=0;entryX=1;entryY=0.5;entryDx=0;entryDy=0;fontColor=#000000;" edge="1" parent="SVdXYpih-2KkBBQ6i95Y-1" source="GQbEOrHIZVKjRxsu-4cN-0" target="v0FQVUiF5tZoUybMBT4n-26">
                    <mxGeometry relative="1" as="geometry"/>
                </mxCell>
                <mxCell id="GQbEOrHIZVKjRxsu-4cN-0" value="" style="rounded=0;whiteSpace=wrap;html=1;fillColor=none;strokeColor=#1A1A1A;dashed=1;dashPattern=8 8;" vertex="1" parent="SVdXYpih-2KkBBQ6i95Y-1">
                    <mxGeometry x="50" y="360" width="190" height="530" as="geometry"/>
                </mxCell>
                <mxCell id="SVdXYpih-2KkBBQ6i95Y-16" value="&lt;font color=&quot;#ffffff&quot;&gt;MCIF_schema&lt;/font&gt;" style="swimlane;whiteSpace=wrap;html=1;fillColor=#e3c800;strokeColor=#B09500;fontColor=#000000;" vertex="1" parent="SVdXYpih-2KkBBQ6i95Y-1">
                    <mxGeometry x="80" y="386.5" width="130" height="120" as="geometry"/>
                </mxCell>
                <mxCell id="SVdXYpih-2KkBBQ6i95Y-17" value="" style="shape=image;verticalLabelPosition=bottom;labelBackgroundColor=default;verticalAlign=top;aspect=fixed;imageAspect=0;image=https://techdiw.com/wp-content/uploads/2023/02/Delta-Lake-logo-1.jpg;clipPath=inset(8.33% 33.33% 8.33% 33.33%);" vertex="1" parent="SVdXYpih-2KkBBQ6i95Y-16">
                    <mxGeometry x="30" y="50" width="20" height="20" as="geometry"/>
                </mxCell>
                <mxCell id="GQbEOrHIZVKjRxsu-4cN-51" value="" style="shape=table;startSize=12;container=1;collapsible=0;childLayout=tableLayout;fontStyle=1;align=center;" vertex="1" parent="SVdXYpih-2KkBBQ6i95Y-16">
                    <mxGeometry x="40" y="63.5" width="50" height="40" as="geometry"/>
                </mxCell>
                <mxCell id="GQbEOrHIZVKjRxsu-4cN-52" value="" style="shape=tableRow;horizontal=0;startSize=0;swimlaneHead=0;swimlaneBody=0;top=0;left=0;bottom=0;right=0;collapsible=0;dropTarget=0;fillColor=none;points=[[0,0.5],[1,0.5]];portConstraint=eastwest;" vertex="1" parent="GQbEOrHIZVKjRxsu-4cN-51">
                    <mxGeometry y="12" width="50" height="11" as="geometry"/>
                </mxCell>
                <mxCell id="GQbEOrHIZVKjRxsu-4cN-53" value="" style="shape=partialRectangle;html=1;whiteSpace=wrap;connectable=0;fillColor=none;top=0;left=0;bottom=0;right=0;overflow=hidden;" vertex="1" parent="GQbEOrHIZVKjRxsu-4cN-52">
                    <mxGeometry width="14" height="11" as="geometry">
                        <mxRectangle width="14" height="11" as="alternateBounds"/>
                    </mxGeometry>
                </mxCell>
                <mxCell id="GQbEOrHIZVKjRxsu-4cN-54" value="" style="shape=partialRectangle;html=1;whiteSpace=wrap;connectable=0;fillColor=none;top=0;left=0;bottom=0;right=0;overflow=hidden;" vertex="1" parent="GQbEOrHIZVKjRxsu-4cN-52">
                    <mxGeometry x="14" width="20" height="11" as="geometry">
                        <mxRectangle width="20" height="11" as="alternateBounds"/>
                    </mxGeometry>
                </mxCell>
                <mxCell id="GQbEOrHIZVKjRxsu-4cN-55" value="" style="shape=partialRectangle;html=1;whiteSpace=wrap;connectable=0;fillColor=none;top=0;left=0;bottom=0;right=0;overflow=hidden;" vertex="1" parent="GQbEOrHIZVKjRxsu-4cN-52">
                    <mxGeometry x="34" width="16" height="11" as="geometry">
                        <mxRectangle width="16" height="11" as="alternateBounds"/>
                    </mxGeometry>
                </mxCell>
                <mxCell id="GQbEOrHIZVKjRxsu-4cN-56" value="" style="shape=tableRow;horizontal=0;startSize=0;swimlaneHead=0;swimlaneBody=0;top=0;left=0;bottom=0;right=0;collapsible=0;dropTarget=0;fillColor=none;points=[[0,0.5],[1,0.5]];portConstraint=eastwest;" vertex="1" parent="GQbEOrHIZVKjRxsu-4cN-51">
                    <mxGeometry y="23" width="50" height="9" as="geometry"/>
                </mxCell>
                <mxCell id="GQbEOrHIZVKjRxsu-4cN-57" value="" style="shape=partialRectangle;html=1;whiteSpace=wrap;connectable=0;fillColor=none;top=0;left=0;bottom=0;right=0;overflow=hidden;" vertex="1" parent="GQbEOrHIZVKjRxsu-4cN-56">
                    <mxGeometry width="14" height="9" as="geometry">
                        <mxRectangle width="14" height="9" as="alternateBounds"/>
                    </mxGeometry>
                </mxCell>
                <mxCell id="GQbEOrHIZVKjRxsu-4cN-58" value="" style="shape=partialRectangle;html=1;whiteSpace=wrap;connectable=0;fillColor=none;top=0;left=0;bottom=0;right=0;overflow=hidden;" vertex="1" parent="GQbEOrHIZVKjRxsu-4cN-56">
                    <mxGeometry x="14" width="20" height="9" as="geometry">
                        <mxRectangle width="20" height="9" as="alternateBounds"/>
                    </mxGeometry>
                </mxCell>
                <mxCell id="GQbEOrHIZVKjRxsu-4cN-59" value="" style="shape=partialRectangle;html=1;whiteSpace=wrap;connectable=0;fillColor=none;top=0;left=0;bottom=0;right=0;overflow=hidden;" vertex="1" parent="GQbEOrHIZVKjRxsu-4cN-56">
                    <mxGeometry x="34" width="16" height="9" as="geometry">
                        <mxRectangle width="16" height="9" as="alternateBounds"/>
                    </mxGeometry>
                </mxCell>
                <mxCell id="GQbEOrHIZVKjRxsu-4cN-60" value="" style="shape=tableRow;horizontal=0;startSize=0;swimlaneHead=0;swimlaneBody=0;top=0;left=0;bottom=0;right=0;collapsible=0;dropTarget=0;fillColor=none;points=[[0,0.5],[1,0.5]];portConstraint=eastwest;" vertex="1" parent="GQbEOrHIZVKjRxsu-4cN-51">
                    <mxGeometry y="32" width="50" height="8" as="geometry"/>
                </mxCell>
                <mxCell id="GQbEOrHIZVKjRxsu-4cN-61" value="" style="shape=partialRectangle;html=1;whiteSpace=wrap;connectable=0;fillColor=none;top=0;left=0;bottom=0;right=0;overflow=hidden;" vertex="1" parent="GQbEOrHIZVKjRxsu-4cN-60">
                    <mxGeometry width="14" height="8" as="geometry">
                        <mxRectangle width="14" height="8" as="alternateBounds"/>
                    </mxGeometry>
                </mxCell>
                <mxCell id="GQbEOrHIZVKjRxsu-4cN-62" value="" style="shape=partialRectangle;html=1;whiteSpace=wrap;connectable=0;fillColor=none;top=0;left=0;bottom=0;right=0;overflow=hidden;" vertex="1" parent="GQbEOrHIZVKjRxsu-4cN-60">
                    <mxGeometry x="14" width="20" height="8" as="geometry">
                        <mxRectangle width="20" height="8" as="alternateBounds"/>
                    </mxGeometry>
                </mxCell>
                <mxCell id="GQbEOrHIZVKjRxsu-4cN-63" value="" style="shape=partialRectangle;html=1;whiteSpace=wrap;connectable=0;fillColor=none;top=0;left=0;bottom=0;right=0;overflow=hidden;" vertex="1" parent="GQbEOrHIZVKjRxsu-4cN-60">
                    <mxGeometry x="34" width="16" height="8" as="geometry">
                        <mxRectangle width="16" height="8" as="alternateBounds"/>
                    </mxGeometry>
                </mxCell>
                <mxCell id="SVdXYpih-2KkBBQ6i95Y-19" style="edgeStyle=entityRelationEdgeStyle;html=1;exitX=1;exitY=0.5;exitDx=0;exitDy=0;entryX=1;entryY=0.5;entryDx=0;entryDy=0;fontColor=#FFFFFF;" edge="1" parent="SVdXYpih-2KkBBQ6i95Y-1" source="GQbEOrHIZVKjRxsu-4cN-0" target="SVdXYpih-2KkBBQ6i95Y-82">
                    <mxGeometry relative="1" as="geometry">
                        <mxPoint x="250" y="369" as="sourcePoint"/>
                    </mxGeometry>
                </mxCell>
                <mxCell id="SVdXYpih-2KkBBQ6i95Y-52" style="edgeStyle=entityRelationEdgeStyle;html=1;fontColor=#FFFFFF;entryX=0.5;entryY=1;entryDx=0;entryDy=0;" edge="1" parent="SVdXYpih-2KkBBQ6i95Y-1" target="SVdXYpih-2KkBBQ6i95Y-73">
                    <mxGeometry relative="1" as="geometry">
                        <mxPoint x="480" y="260" as="sourcePoint"/>
                    </mxGeometry>
                </mxCell>
                <mxCell id="SVdXYpih-2KkBBQ6i95Y-53" value="&lt;font color=&quot;#ffffff&quot;&gt;PJ_modelA_schema&lt;/font&gt;" style="swimlane;whiteSpace=wrap;html=1;fillColor=#bac8d3;strokeColor=#23445d;" vertex="1" parent="SVdXYpih-2KkBBQ6i95Y-1">
                    <mxGeometry x="330" y="264" width="370" height="120" as="geometry"/>
                </mxCell>
                <mxCell id="SVdXYpih-2KkBBQ6i95Y-54" value="" style="group" vertex="1" connectable="0" parent="SVdXYpih-2KkBBQ6i95Y-53">
                    <mxGeometry x="30" y="34" width="70" height="80" as="geometry"/>
                </mxCell>
                <mxCell id="SVdXYpih-2KkBBQ6i95Y-55" value="" style="shape=table;startSize=12;container=1;collapsible=0;childLayout=tableLayout;fontStyle=1;align=center;" vertex="1" parent="SVdXYpih-2KkBBQ6i95Y-54">
                    <mxGeometry x="10" y="10" width="50" height="40" as="geometry"/>
                </mxCell>
                <mxCell id="SVdXYpih-2KkBBQ6i95Y-56" value="" style="shape=tableRow;horizontal=0;startSize=0;swimlaneHead=0;swimlaneBody=0;top=0;left=0;bottom=0;right=0;collapsible=0;dropTarget=0;fillColor=none;points=[[0,0.5],[1,0.5]];portConstraint=eastwest;" vertex="1" parent="SVdXYpih-2KkBBQ6i95Y-55">
                    <mxGeometry y="12" width="50" height="11" as="geometry"/>
                </mxCell>
                <mxCell id="SVdXYpih-2KkBBQ6i95Y-57" value="" style="shape=partialRectangle;html=1;whiteSpace=wrap;connectable=0;fillColor=none;top=0;left=0;bottom=0;right=0;overflow=hidden;" vertex="1" parent="SVdXYpih-2KkBBQ6i95Y-56">
                    <mxGeometry width="14" height="11" as="geometry">
                        <mxRectangle width="14" height="11" as="alternateBounds"/>
                    </mxGeometry>
                </mxCell>
                <mxCell id="SVdXYpih-2KkBBQ6i95Y-58" value="" style="shape=partialRectangle;html=1;whiteSpace=wrap;connectable=0;fillColor=none;top=0;left=0;bottom=0;right=0;overflow=hidden;" vertex="1" parent="SVdXYpih-2KkBBQ6i95Y-56">
                    <mxGeometry x="14" width="20" height="11" as="geometry">
                        <mxRectangle width="20" height="11" as="alternateBounds"/>
                    </mxGeometry>
                </mxCell>
                <mxCell id="SVdXYpih-2KkBBQ6i95Y-59" value="" style="shape=partialRectangle;html=1;whiteSpace=wrap;connectable=0;fillColor=none;top=0;left=0;bottom=0;right=0;overflow=hidden;" vertex="1" parent="SVdXYpih-2KkBBQ6i95Y-56">
                    <mxGeometry x="34" width="16" height="11" as="geometry">
                        <mxRectangle width="16" height="11" as="alternateBounds"/>
                    </mxGeometry>
                </mxCell>
                <mxCell id="SVdXYpih-2KkBBQ6i95Y-60" value="" style="shape=tableRow;horizontal=0;startSize=0;swimlaneHead=0;swimlaneBody=0;top=0;left=0;bottom=0;right=0;collapsible=0;dropTarget=0;fillColor=none;points=[[0,0.5],[1,0.5]];portConstraint=eastwest;" vertex="1" parent="SVdXYpih-2KkBBQ6i95Y-55">
                    <mxGeometry y="23" width="50" height="9" as="geometry"/>
                </mxCell>
                <mxCell id="SVdXYpih-2KkBBQ6i95Y-61" value="" style="shape=partialRectangle;html=1;whiteSpace=wrap;connectable=0;fillColor=none;top=0;left=0;bottom=0;right=0;overflow=hidden;" vertex="1" parent="SVdXYpih-2KkBBQ6i95Y-60">
                    <mxGeometry width="14" height="9" as="geometry">
                        <mxRectangle width="14" height="9" as="alternateBounds"/>
                    </mxGeometry>
                </mxCell>
                <mxCell id="SVdXYpih-2KkBBQ6i95Y-62" value="" style="shape=partialRectangle;html=1;whiteSpace=wrap;connectable=0;fillColor=none;top=0;left=0;bottom=0;right=0;overflow=hidden;" vertex="1" parent="SVdXYpih-2KkBBQ6i95Y-60">
                    <mxGeometry x="14" width="20" height="9" as="geometry">
                        <mxRectangle width="20" height="9" as="alternateBounds"/>
                    </mxGeometry>
                </mxCell>
                <mxCell id="SVdXYpih-2KkBBQ6i95Y-63" value="" style="shape=partialRectangle;html=1;whiteSpace=wrap;connectable=0;fillColor=none;top=0;left=0;bottom=0;right=0;overflow=hidden;" vertex="1" parent="SVdXYpih-2KkBBQ6i95Y-60">
                    <mxGeometry x="34" width="16" height="9" as="geometry">
                        <mxRectangle width="16" height="9" as="alternateBounds"/>
                    </mxGeometry>
                </mxCell>
                <mxCell id="SVdXYpih-2KkBBQ6i95Y-64" value="" style="shape=tableRow;horizontal=0;startSize=0;swimlaneHead=0;swimlaneBody=0;top=0;left=0;bottom=0;right=0;collapsible=0;dropTarget=0;fillColor=none;points=[[0,0.5],[1,0.5]];portConstraint=eastwest;" vertex="1" parent="SVdXYpih-2KkBBQ6i95Y-55">
                    <mxGeometry y="32" width="50" height="8" as="geometry"/>
                </mxCell>
                <mxCell id="SVdXYpih-2KkBBQ6i95Y-65" value="" style="shape=partialRectangle;html=1;whiteSpace=wrap;connectable=0;fillColor=none;top=0;left=0;bottom=0;right=0;overflow=hidden;" vertex="1" parent="SVdXYpih-2KkBBQ6i95Y-64">
                    <mxGeometry width="14" height="8" as="geometry">
                        <mxRectangle width="14" height="8" as="alternateBounds"/>
                    </mxGeometry>
                </mxCell>
                <mxCell id="SVdXYpih-2KkBBQ6i95Y-66" value="" style="shape=partialRectangle;html=1;whiteSpace=wrap;connectable=0;fillColor=none;top=0;left=0;bottom=0;right=0;overflow=hidden;" vertex="1" parent="SVdXYpih-2KkBBQ6i95Y-64">
                    <mxGeometry x="14" width="20" height="8" as="geometry">
                        <mxRectangle width="20" height="8" as="alternateBounds"/>
                    </mxGeometry>
                </mxCell>
                <mxCell id="SVdXYpih-2KkBBQ6i95Y-67" value="" style="shape=partialRectangle;html=1;whiteSpace=wrap;connectable=0;fillColor=none;top=0;left=0;bottom=0;right=0;overflow=hidden;" vertex="1" parent="SVdXYpih-2KkBBQ6i95Y-64">
                    <mxGeometry x="34" width="16" height="8" as="geometry">
                        <mxRectangle width="16" height="8" as="alternateBounds"/>
                    </mxGeometry>
                </mxCell>
                <mxCell id="SVdXYpih-2KkBBQ6i95Y-68" value="" style="shape=image;verticalLabelPosition=bottom;labelBackgroundColor=default;verticalAlign=top;aspect=fixed;imageAspect=0;image=https://techdiw.com/wp-content/uploads/2023/02/Delta-Lake-logo-1.jpg;clipPath=inset(8.33% 33.33% 8.33% 33.33%);" vertex="1" parent="SVdXYpih-2KkBBQ6i95Y-54">
                    <mxGeometry width="20" height="20" as="geometry"/>
                </mxCell>
                <mxCell id="SVdXYpih-2KkBBQ6i95Y-69" value="features" style="text;html=1;align=center;verticalAlign=middle;resizable=0;points=[];autosize=1;strokeColor=none;fillColor=none;fontColor=#1A1A1A;" vertex="1" parent="SVdXYpih-2KkBBQ6i95Y-54">
                    <mxGeometry y="50" width="70" height="30" as="geometry"/>
                </mxCell>
                <mxCell id="SVdXYpih-2KkBBQ6i95Y-70" value="&lt;font color=&quot;#ffffff&quot;&gt;Model_A_Train_Pipline&lt;/font&gt;" style="swimlane;whiteSpace=wrap;html=1;fillColor=#BAC8D3;strokeColor=#666666;direction=west;fontColor=#333333;fillStyle=auto;" vertex="1" parent="SVdXYpih-2KkBBQ6i95Y-1">
                    <mxGeometry x="331" y="77" width="550" height="140" as="geometry"/>
                </mxCell>
                <mxCell id="SVdXYpih-2KkBBQ6i95Y-71" value="Model Pipline Job" style="text;html=1;align=center;verticalAlign=middle;resizable=0;points=[];autosize=1;strokeColor=none;fillColor=none;fontColor=#1A1A1A;" vertex="1" parent="SVdXYpih-2KkBBQ6i95Y-70">
                    <mxGeometry x="4" width="120" height="30" as="geometry"/>
                </mxCell>
                <mxCell id="SVdXYpih-2KkBBQ6i95Y-72" value="FeatureCreate" style="whiteSpace=wrap;html=1;labelBackgroundColor=none;fillStyle=auto;strokeColor=#BAC8D3;fontColor=#1A1A1A;fillColor=#BAC8D3;" vertex="1" parent="SVdXYpih-2KkBBQ6i95Y-70">
                    <mxGeometry x="20" y="45" width="100" height="56.5" as="geometry"/>
                </mxCell>
                <mxCell id="SVdXYpih-2KkBBQ6i95Y-73" value="Modeling" style="whiteSpace=wrap;html=1;labelBackgroundColor=none;fillStyle=auto;strokeColor=#BAC8D3;fontColor=#1A1A1A;fillColor=#BAC8D3;" vertex="1" parent="SVdXYpih-2KkBBQ6i95Y-70">
                    <mxGeometry x="150" y="45" width="100" height="56.5" as="geometry"/>
                </mxCell>
                <mxCell id="SVdXYpih-2KkBBQ6i95Y-74" value="Model deployment test" style="whiteSpace=wrap;html=1;labelBackgroundColor=none;fillStyle=auto;strokeColor=#BAC8D3;fontColor=#1A1A1A;fillColor=#BAC8D3;" vertex="1" parent="SVdXYpih-2KkBBQ6i95Y-70">
                    <mxGeometry x="410" y="45" width="100" height="56.5" as="geometry"/>
                </mxCell>
                <mxCell id="SVdXYpih-2KkBBQ6i95Y-75" value="Model &lt;br&gt;inference&amp;nbsp; test" style="whiteSpace=wrap;html=1;labelBackgroundColor=none;fillStyle=auto;strokeColor=#BAC8D3;fontColor=#1A1A1A;fillColor=#BAC8D3;" vertex="1" parent="SVdXYpih-2KkBBQ6i95Y-70">
                    <mxGeometry x="280" y="45" width="100" height="56.5" as="geometry"/>
                </mxCell>
                <mxCell id="SVdXYpih-2KkBBQ6i95Y-76" value="&lt;font color=&quot;#ffffff&quot;&gt;PJ_modelA_schema&lt;/font&gt;" style="swimlane;whiteSpace=wrap;html=1;fillColor=#bac8d3;strokeColor=#23445d;" vertex="1" parent="SVdXYpih-2KkBBQ6i95Y-1">
                    <mxGeometry x="750" y="264" width="130" height="121" as="geometry"/>
                </mxCell>
                <mxCell id="SVdXYpih-2KkBBQ6i95Y-77" value="" style="shape=image;verticalLabelPosition=bottom;labelBackgroundColor=default;verticalAlign=top;aspect=fixed;imageAspect=0;image=data:image/png,iVBORw0KGgoAAAANSUhEUgAAAEEAAAA/CAYAAAC/36X0AAABYmlDQ1BJQ0MgUHJvZmlsZQAAKJFtkDtLA1EQhc9qwkK0CMEHiEUai4X4WoPEMsZFhRRLohgtlN2bmBiSeNmsiKWgjT9A/AXa2EewCZY24gMFtbSwF7bRsM5N1CTqHYbzcZgZ5g7Q4Tc4L3gAFEu2lZidDqaWV4LyK3yQ0YdR9BuszKO6HqcSfGv7c+4hCb0dFrPO8pp3//kyoJzcrD1dr+7+rW97vnSmzEg/KCcZt2xAChPr2zYXvEfcY9FSxEeCsw0+FWw2uFqvWUjEiO+I/SxnpIlfiENmi59t4WJhi33tILbvzpQWk6QDlIOYgYY4RRBJIpViHFOYQ4ru9H9fuN4XwyY4dmBhA1nkYNOEKDkcBWSI51ECwwhCxCrGKMPi3r/v2PSYBqgmwVXTyx8A5730hUjTU2QgQP7FEDcs4+e6kuMpr0+oDe6qAN5D131bAmQFqD247nvFdWvHQOcjUHU+Aax3Y1Htm0kaAAAAOGVYSWZNTQAqAAAACAABh2kABAAAAAEAAAAaAAAAAAACoAIABAAAAAEAAABBoAMABAAAAAEAAAA/AAAAAJm93NcAABAiSURBVHgB7VtpWFXXFV3M86CCCMigIKLggDiLAs7G1FSjNURNzBy/tCbN16Zp035Ja2ObNm1tOiQdTGIGTTDGOc4G4xgHEEdUQEAUEARRUCahax96Xy6P95je0/wI2+9x77v33PPO3Xefvdda52pTdauiAd9xs/2O37+6/U4n0A2dTuh0QmMy6IwE+sG+0Rffzt/q2lpU3LqNmro7cHZ0gLuLMxzsmw+ptq4ON9iuju1cnBzh4eoCGxsbqw26+S9areuWO8orKsaXaaeQnnkRlbeq0L2rN2L79sbYQf3RzdPTcPHN27ex62g6DpzKoMOq4O/bFVOGx2B4ZB9DG0t3vpXpUFR2HX9fuwXLN+2EHZ/8wD69cO3GTbz1+RdY/eUBVPDGxe7U12MPHfXWms2oqq1D3+CeSLtwEa8uX4VLV4stvXfD9Xc9Esp4c1lXCnH1+g0Vzj7eHjiVnYe089n4yUMzEDewP7zd3XDlWik+3JaC7UeOI35wNPqF9EQNb1yioE9QIF5+eCb8GC1jB0biyT++jR1H0vH49ImGG7Fk56454WpZOT5LOYDdaSdRwCdfy/lsB85jWxvcrqlBNJ/q+NiBzAMuavw9fX0wPmYAUtLP4ERWDiJ6BqChoYG54BaCe/jBv1tXlQci6RxnR0cUs09r2V1xwvlLl/HXzzZj/8lzCPLtguERYZjGeezj7YVDZ85h44GjOJ2Tj21fp+HBhNGGe/F0c1WJUaZLfUM97Oxs0SugB3PHaaTQmcOYB5Z/sRMljK4R/fsarrN0x+pOyLxcgDdWrkVGbj5+ljQDc8bHwd7OzjDOIX3D8APe+NKP1mDJB6vhzxAfzSmhNwaAMicHB8xh2x1HT2DRsv/A09kFpZUVmDl6GBKGDNBfYtG+VZ1wvaISybv3IbewGC/Pm8UsPqSJA7SR+nTxxiuPzkHmlSL8btVafNgrCN4eHtppw1ZK4/6TZ+Fob4d5dKZ/1y6ICu2JoVERhjb1TJ6VVdW4XV3DKLKDRJOdbfvyvVWdkF98DXuOn8HUETFI4Px2dDDfvZTB+RPj8PLyT7DlYCqSJscbbkzbOX/pCpJTDqrcsfjB6XBzdtZOqa0kTskfu4+dQB6rhThg7KAoTGCUODKK2mrtc1kLvdbduaMGVMNtLHOAABrNpORt/TpVRYh2TLZTRsTC19MDucQMxiY54T8bd8DVyQkz40Y0c4C0zy8uxt9YPlNZNkOZPMsYia9ziqUcP2XcXYvfreiEepy6mMun4YKevt2a/GgNkeG7m3fhKzW4b+QLL5bG3zz+EKaOHNKkfeMXG0RzmjwyeRzxQWCz8+L0g6fP40ppGRZOS8Di2dPxyoLZ6O3fHZ/u2tesfUsHzMdrS1eZOsdsVnm7Gm6EvlL39ebq5IxeHNymQ8cQE9Eb0b1DDKcF/ZkyW8LipEnj1ClTELm+vgEF18pYQexU+ZTwlzIb4NMN5/LyTXVp9pjVIoFFnKHrSEdUQRKk3pzICx6dmqjAz5+TN0BKqN4a0KBKov6Y7EsOMM4DWhtJgqOYIKuZEFPPZeEWk+Phs+dxgNEhWKI9ZrVIsGdNHxAWiv3EAZeulhDlBRjGIU+yX2gQfjF/Fl57PxnzlixDZLA/IgIDFJKUJzorfiRi+vQ2XNPaTlVNLY6czSTSLMPSVeuIH3ahtOIWAlhyXyQSbY9Z0Ql2JDXhWLnjKxw9n4Xh/SMUK9QGI44Y1i8C77z4DLZwWqQTOqdm5aKbhxvbhnO6+GlNW90K83xvyy6s2XMITxE6x5B7CD7x7eKJxCED0cXdvdU+9A2s5gTp1MPVlQjPD18cSsU4ssGRCtU1IJt4INjPV2GGIG4fnTZB1fQa4gApo7Y2jbPybM4l/dhM7pcSLX6wLYVEaz+SJozFwvsmKGdPGDrIZPu2HLSaE+QGvjpxBhcuF6KYZEm4g5S50vKbWLJiNSbGDsCIqL5wYCJLITMM7uFLMhRlcEBbBlt8vRwfbduDdfsOYz5xxYIpCU2irS19mGpjsROE5GwmF3hv25coKClFIMvjU/dPwABWABv+k+wd7OejKPJWMkR7JrRiOuip6ZM4nm/KpfHgzlzMw16iRb2JBpGemcskm4C5E+LMJk39NW3Zt9gJu4jWfvvxGriT2f384VmIDgtBdxIlKZViXTzc8fzs+5GRdxnvcx6nXcjBc9+fgglkkHpOYTxY0ReOZWQ2OVx7p54OiMcMM+CpSeN2fLHICTI/P9q+R+GDZc89hqFMjKZurCtR4UgmSg865vckV4czsgiQYuGuQ5XGYx7OfBJD5Glsbs5O7YLExteb+m6RE7aSCh+5kI35JDcjOd/FhNDkFV1VHKKaZSyROD4ssAdsSWqkhM6bOJZK0RfIYu7wI5EyBYSkHycmTNEc22MyuSoJ0bcfTmOZvka5LoyfcDgTv7SkSHbYCdUURoS8+DLcn54h8xsQKLvj6HG8QWZYV1ePeh57h/h/8axpWECwJOxuWL8+VJQeQJ+e/s0cIACoq6c7p5ITr2xp2PJrze0iFawX3lqOfKpUARRhVpLRThs2GItmTlMOb35F45EOO0EYY8blK+jNkujyf3ZXVHoda8j6wgP88Rx/2IEAauXOfXh743a260FRxROenAIhrAyFbFvHOV5FZ4qAKlNDEmkitYXuXbxQXVuD0xcLVSkVMia0WlBhS/b+lt1Kuf7TswsxOCIUnxNHiICTnpmDiSyhAsVNWYedUEF4XFVdC28/N0PnwunLK28pIURDf0njG/Dxrr1485N1CPTpqoCNsMYcag6TObCCkjKcIPEayKkSwiqy5/hphR3CGClLP1yteMig8FCUlN/AhfxCU/dgOHaaQs4kTr9ElmOxuIH9sP1YukKwdQqTOBja6nc67ASBybbUC2s5BTQlSMqfrBtkF1xFOfmD8Pt0okJ3Rsr3x41QBMePlSOSEPpG5W3SX1+VVKPDQ+ArFYVzV2aBB3VHqTDzpySq3ODLCBIHx/Ztykn0NyL7kqRz6GDBE5KMi1iKq/mguhCVtiS0dNgJgWRrwT4+yC8qUdK4DEIGPj4mGitJZYU/uJA4pRBA3Td8MB6eOE4JpEKrpfzJIEU+05uwv4PkAw+MHgqh2TPGDNOfbnXf2dEev3r3EyxmXggiXjnLsuzj5UFKHqzwirkO7H75yi9eM3eypePCDEX73556gjfvqcCRREHvQD/0ZNhfKblGxNig9MQn7p/IZNcosqRSal+y4jPiezdFr/XVIZ+O+2T3fkSSfPUPCVaR1tIYjM8FdfdBLHlEOYmUqNFxA/op9hrGHCVRa846HAkyeNECNlEae4vK8lDqBLI+4E3yMp1CqHyM7frNCq4XHGeSq1XVQcpmM/v/WIVey+KLsUly0ztOf14eQiwVafm0xzrsBPmRsEB/PEZV5xWG4At/fw///PHTCDXBBgVayzxN5lPeQmyxcFoiGZ9Xi+M8nZ2LNXsPNWkjDnhgzHAMCu+lcEeTkxZ8scgJ8rszx43Ciq0pKBTCRLVHTBGnGxVqsVWU4LKbldhKAKO0Pz7pfeQEAVxTnDR0sEmEKX1cr6xkkiuRXYMJKTvG6STwfFR0pNmIMFzQxh2LnSBKUhGfcmSQP/NBD/WzZQx7obtpRJM3WQVk9UlI1DP3T4IrYe+u1JP4S/JG9OX0EfxgykZFRSq0pz8nlPwf67bi1yuS8VLSTIxnOTQ3NfTXtbZvsRMkzMuIDaQMaSagx8PVmfM+QGEDwQf9KXmJliCDDqXe+KO/vYtDp8+ZdYKdrR1hc9PqIVjiJ3Nn4M1PN+B1Lt4IoJo6Yki76Lg2Rv3WYicILhdkWFlVY+hXhNaHyCcEP8iTNyZVEYyApMTRajHFcBF3JBFqU0p/XL8vjv3VI3PwOzrhz8mbcIeoU4BZFpWlAJZFyVPmkKG+H/2+xU7owVWhkO6+FFMKiBYr4eVGBMmsLyqTORNi9ASnhj2ftt4kgcqnNRNJ/9WFc/EbTovXKNhIuRakKgwzfkAklj69QIG21vrRzpuoUdqptm3lKY8mKcoll1hLrN76LRAUckrIoop+hUquu1xcCqHnbTHhF88+MBmedKiscC9b9Ahmxw3HxoNpzDfr29KFoY3FTpCe5pMh+nl6KdkrK/+KoXNtR56ukKuzuZcUEdKOa1sBVVn5BWpdoojSnGZynSmsIOcFrktOsSflfmbGZEziuudL8x7E1GEDWX0ytC7atLWKEyTDi6SWTR3hnfXbqCcUK11BG4Gow8tWb8C/SavLWDq1m5OtVBJ5YeOj7SnIpsbgzpAW40oEbzIDJ7Nz1Pdmfxg6NhRoRbPUok8guexrwm2za8wcsDgnaP3OmxzPtcFr2Mw1R3m1Znb8KGoH4UoHlJXlQ2cu4IfUFboRYucUXuUS2jlVOi8wAs5QpPVkNZk+agg28Xox+gf/3bSDmqQDljyRRHrtrf2U2gqBG9G/DxHrUSRTeS6ghiA44ggluUenJDRp29qXDnMH447liUjdl6f7Fd822ccXrbILipDJ6bHx4DGyRE/O4akqF2RT/NjJ13Ay+eSF3Y2iKiXvIQj2F8U6JjyUS/AhSqdcv/+IWt8UEqTHBLIvfES0BknKaVyFKuCUS+CrPklUr6QqtdWsFgkyqADigae+N1lpA/Lu0QmKqnKz1zkdnpicYFijlGWy5+d8T5U3V2dHVhRXpRuepFKltzEkQKOj++LzvYcVSZOV56AePmSnjTco1WAacYK8wXKDpMnZyUFR8vbKclZzggxeHCEYQZTkURy8aIwl5eV45s1/NWFx5tYYJQnKNHCici26gryzOJd440Xykhf+uYIva9gjig5cNGMK4ri4IyZ0XMCYfDpqVkmMxj8uZdOTOEGEkn6kxFLX85gvhFO0ZNe4UGPP6RFEiC1YQ1UNhvqt6mrcN2wQHudcv0MI/tK/PkAhc4C17K44wXhw8TFROEYesf3wcbMlT5Sor7mq3J0iiK+XlwSCiqQtXNIbQ7K05Ml5WMwp9MazC1BFR6xq5zsIxmPSf78nThAI3Y9JU6j00YwLTQRTSaRXKYCsJW0+wIohL2wIENLsDvGAhLxMEzEX5gFXThcph9Yyq+YEc4MSzfBpwuS3N2zDH1at58uaUQgn43TmzQlOkLJ2KicPiXzPST6a7CaapfACKZsf79yj4PneE2eVQj2WIqq1zOZe/fcfkczPUg2Wui6Lt9U1daqcOjnYKTVKFOL4QdFKltduTp7+5ZISyvZ71TvQVRRbJfEKhX6IK9KyzmkNu2dOkMFK6MvcL2ECrKyqUusO8naL1HoBQ3ouod2cJMcbJEeXqVmKE2RtUxZ9tWjR2lmyvadOsGSgd/Pae5IY7+YNWKPvTifQi51O6HRC42TqjITOSOiMhEYPWDsSqsj2RHE2Zos1fBGj9ObNZscNozCxIyxx/6mmb6/pm8lbMcdJygr5grelZrWcIIOSlzFm/vIPOEwpTTPRCH769go8+Oqb6v1G7XhrW1m9fuPjtWabyf+pFPlN2llq/wMnkUCr72YtZgAAAABJRU5ErkJggg==;clipPath=inset(0% 0% 0% 0% round 50%);" vertex="1" parent="SVdXYpih-2KkBBQ6i95Y-76">
                    <mxGeometry x="37.66" y="44" width="54.68" height="52.997538461538454" as="geometry"/>
                </mxCell>
                <mxCell id="SVdXYpih-2KkBBQ6i95Y-78" value="model registory" style="text;html=1;align=center;verticalAlign=middle;resizable=0;points=[];autosize=1;strokeColor=none;fillColor=none;fontColor=#1A1A1A;" vertex="1" parent="SVdXYpih-2KkBBQ6i95Y-76">
                    <mxGeometry x="10" y="91" width="110" height="30" as="geometry"/>
                </mxCell>
                <mxCell id="SVdXYpih-2KkBBQ6i95Y-79" value="" style="edgeStyle=entityRelationEdgeStyle;html=1;fontColor=#1A1A1A;" edge="1" parent="SVdXYpih-2KkBBQ6i95Y-1" source="SVdXYpih-2KkBBQ6i95Y-74" target="SVdXYpih-2KkBBQ6i95Y-77">
                    <mxGeometry relative="1" as="geometry">
                        <mxPoint x="810" y="384" as="targetPoint"/>
                    </mxGeometry>
                </mxCell>
                <mxCell id="SVdXYpih-2KkBBQ6i95Y-80" style="edgeStyle=entityRelationEdgeStyle;html=1;entryX=1;entryY=0.5;entryDx=0;entryDy=0;fontColor=#1A1A1A;exitX=1;exitY=0.5;exitDx=0;exitDy=0;" edge="1" parent="SVdXYpih-2KkBBQ6i95Y-1" source="GQbEOrHIZVKjRxsu-4cN-0" target="SVdXYpih-2KkBBQ6i95Y-70">
                    <mxGeometry relative="1" as="geometry">
                        <mxPoint x="250" y="570" as="sourcePoint"/>
                    </mxGeometry>
                </mxCell>
                <mxCell id="SVdXYpih-2KkBBQ6i95Y-81" style="edgeStyle=entityRelationEdgeStyle;html=1;fontColor=#1A1A1A;exitX=0.5;exitY=1;exitDx=0;exitDy=0;" edge="1" parent="SVdXYpih-2KkBBQ6i95Y-1" source="SVdXYpih-2KkBBQ6i95Y-72">
                    <mxGeometry relative="1" as="geometry">
                        <mxPoint x="330" y="334" as="targetPoint"/>
                    </mxGeometry>
                </mxCell>
                <mxCell id="SVdXYpih-2KkBBQ6i95Y-82" value="&lt;font color=&quot;#ffffff&quot;&gt;Model_A_Inference_Pipline&lt;/font&gt;" style="swimlane;whiteSpace=wrap;html=1;fillColor=#BAC8D3;strokeColor=#666666;direction=west;fontColor=#333333;fillStyle=auto;" vertex="1" parent="SVdXYpih-2KkBBQ6i95Y-1">
                    <mxGeometry x="330" y="431" width="550" height="140" as="geometry"/>
                </mxCell>
                <mxCell id="SVdXYpih-2KkBBQ6i95Y-83" value="Model Inference Job" style="text;html=1;align=center;verticalAlign=middle;resizable=0;points=[];autosize=1;strokeColor=none;fillColor=none;fontColor=#1A1A1A;" vertex="1" parent="SVdXYpih-2KkBBQ6i95Y-82">
                    <mxGeometry x="-1" width="130" height="30" as="geometry"/>
                </mxCell>
                <mxCell id="SVdXYpih-2KkBBQ6i95Y-84" value="FeatureCreate" style="whiteSpace=wrap;html=1;labelBackgroundColor=none;fillStyle=auto;strokeColor=#BAC8D3;fontColor=#1A1A1A;fillColor=#BAC8D3;" vertex="1" parent="SVdXYpih-2KkBBQ6i95Y-82">
                    <mxGeometry x="20" y="45" width="100" height="56.5" as="geometry"/>
                </mxCell>
                <mxCell id="SVdXYpih-2KkBBQ6i95Y-85" value="inference" style="whiteSpace=wrap;html=1;labelBackgroundColor=none;fillStyle=auto;strokeColor=#BAC8D3;fontColor=#1A1A1A;fillColor=#BAC8D3;" vertex="1" parent="SVdXYpih-2KkBBQ6i95Y-82">
                    <mxGeometry x="150" y="45" width="100" height="56.5" as="geometry"/>
                </mxCell>
                <mxCell id="SVdXYpih-2KkBBQ6i95Y-86" value="" style="group" vertex="1" connectable="0" parent="SVdXYpih-2KkBBQ6i95Y-1">
                    <mxGeometry x="465" y="298" width="80" height="80" as="geometry"/>
                </mxCell>
                <mxCell id="SVdXYpih-2KkBBQ6i95Y-87" value="" style="shape=table;startSize=10;container=1;collapsible=0;childLayout=tableLayout;fontStyle=1;align=center;" vertex="1" parent="SVdXYpih-2KkBBQ6i95Y-86">
                    <mxGeometry x="10" y="10" width="50" height="40" as="geometry"/>
                </mxCell>
                <mxCell id="SVdXYpih-2KkBBQ6i95Y-88" value="" style="shape=tableRow;horizontal=0;startSize=0;swimlaneHead=0;swimlaneBody=0;top=0;left=0;bottom=0;right=0;collapsible=0;dropTarget=0;fillColor=none;points=[[0,0.5],[1,0.5]];portConstraint=eastwest;" vertex="1" parent="SVdXYpih-2KkBBQ6i95Y-87">
                    <mxGeometry y="10" width="50" height="12" as="geometry"/>
                </mxCell>
                <mxCell id="SVdXYpih-2KkBBQ6i95Y-89" value="" style="shape=partialRectangle;html=1;whiteSpace=wrap;connectable=0;fillColor=none;top=0;left=0;bottom=0;right=0;overflow=hidden;" vertex="1" parent="SVdXYpih-2KkBBQ6i95Y-88">
                    <mxGeometry width="14" height="12" as="geometry">
                        <mxRectangle width="14" height="12" as="alternateBounds"/>
                    </mxGeometry>
                </mxCell>
                <mxCell id="SVdXYpih-2KkBBQ6i95Y-90" value="" style="shape=partialRectangle;html=1;whiteSpace=wrap;connectable=0;fillColor=none;top=0;left=0;bottom=0;right=0;overflow=hidden;" vertex="1" parent="SVdXYpih-2KkBBQ6i95Y-88">
                    <mxGeometry x="14" width="20" height="12" as="geometry">
                        <mxRectangle width="20" height="12" as="alternateBounds"/>
                    </mxGeometry>
                </mxCell>
                <mxCell id="SVdXYpih-2KkBBQ6i95Y-91" value="" style="shape=partialRectangle;html=1;whiteSpace=wrap;connectable=0;fillColor=none;top=0;left=0;bottom=0;right=0;overflow=hidden;" vertex="1" parent="SVdXYpih-2KkBBQ6i95Y-88">
                    <mxGeometry x="34" width="16" height="12" as="geometry">
                        <mxRectangle width="16" height="12" as="alternateBounds"/>
                    </mxGeometry>
                </mxCell>
                <mxCell id="SVdXYpih-2KkBBQ6i95Y-92" value="" style="shape=tableRow;horizontal=0;startSize=0;swimlaneHead=0;swimlaneBody=0;top=0;left=0;bottom=0;right=0;collapsible=0;dropTarget=0;fillColor=none;points=[[0,0.5],[1,0.5]];portConstraint=eastwest;" vertex="1" parent="SVdXYpih-2KkBBQ6i95Y-87">
                    <mxGeometry y="22" width="50" height="9" as="geometry"/>
                </mxCell>
                <mxCell id="SVdXYpih-2KkBBQ6i95Y-93" value="" style="shape=partialRectangle;html=1;whiteSpace=wrap;connectable=0;fillColor=none;top=0;left=0;bottom=0;right=0;overflow=hidden;" vertex="1" parent="SVdXYpih-2KkBBQ6i95Y-92">
                    <mxGeometry width="14" height="9" as="geometry">
                        <mxRectangle width="14" height="9" as="alternateBounds"/>
                    </mxGeometry>
                </mxCell>
                <mxCell id="SVdXYpih-2KkBBQ6i95Y-94" value="" style="shape=partialRectangle;html=1;whiteSpace=wrap;connectable=0;fillColor=none;top=0;left=0;bottom=0;right=0;overflow=hidden;" vertex="1" parent="SVdXYpih-2KkBBQ6i95Y-92">
                    <mxGeometry x="14" width="20" height="9" as="geometry">
                        <mxRectangle width="20" height="9" as="alternateBounds"/>
                    </mxGeometry>
                </mxCell>
                <mxCell id="SVdXYpih-2KkBBQ6i95Y-95" value="" style="shape=partialRectangle;html=1;whiteSpace=wrap;connectable=0;fillColor=none;top=0;left=0;bottom=0;right=0;overflow=hidden;" vertex="1" parent="SVdXYpih-2KkBBQ6i95Y-92">
                    <mxGeometry x="34" width="16" height="9" as="geometry">
                        <mxRectangle width="16" height="9" as="alternateBounds"/>
                    </mxGeometry>
                </mxCell>
                <mxCell id="SVdXYpih-2KkBBQ6i95Y-96" value="" style="shape=tableRow;horizontal=0;startSize=0;swimlaneHead=0;swimlaneBody=0;top=0;left=0;bottom=0;right=0;collapsible=0;dropTarget=0;fillColor=none;points=[[0,0.5],[1,0.5]];portConstraint=eastwest;" vertex="1" parent="SVdXYpih-2KkBBQ6i95Y-87">
                    <mxGeometry y="31" width="50" height="9" as="geometry"/>
                </mxCell>
                <mxCell id="SVdXYpih-2KkBBQ6i95Y-97" value="" style="shape=partialRectangle;html=1;whiteSpace=wrap;connectable=0;fillColor=none;top=0;left=0;bottom=0;right=0;overflow=hidden;" vertex="1" parent="SVdXYpih-2KkBBQ6i95Y-96">
                    <mxGeometry width="14" height="9" as="geometry">
                        <mxRectangle width="14" height="9" as="alternateBounds"/>
                    </mxGeometry>
                </mxCell>
                <mxCell id="SVdXYpih-2KkBBQ6i95Y-98" value="" style="shape=partialRectangle;html=1;whiteSpace=wrap;connectable=0;fillColor=none;top=0;left=0;bottom=0;right=0;overflow=hidden;" vertex="1" parent="SVdXYpih-2KkBBQ6i95Y-96">
                    <mxGeometry x="14" width="20" height="9" as="geometry">
                        <mxRectangle width="20" height="9" as="alternateBounds"/>
                    </mxGeometry>
                </mxCell>
                <mxCell id="SVdXYpih-2KkBBQ6i95Y-99" value="" style="shape=partialRectangle;html=1;whiteSpace=wrap;connectable=0;fillColor=none;top=0;left=0;bottom=0;right=0;overflow=hidden;" vertex="1" parent="SVdXYpih-2KkBBQ6i95Y-96">
                    <mxGeometry x="34" width="16" height="9" as="geometry">
                        <mxRectangle width="16" height="9" as="alternateBounds"/>
                    </mxGeometry>
                </mxCell>
                <mxCell id="SVdXYpih-2KkBBQ6i95Y-100" value="" style="shape=image;verticalLabelPosition=bottom;labelBackgroundColor=default;verticalAlign=top;aspect=fixed;imageAspect=0;image=https://techdiw.com/wp-content/uploads/2023/02/Delta-Lake-logo-1.jpg;clipPath=inset(8.33% 33.33% 8.33% 33.33%);" vertex="1" parent="SVdXYpih-2KkBBQ6i95Y-86">
                    <mxGeometry width="20" height="20" as="geometry"/>
                </mxCell>
                <mxCell id="SVdXYpih-2KkBBQ6i95Y-101" value="output_result" style="text;html=1;align=center;verticalAlign=middle;resizable=0;points=[];autosize=1;strokeColor=none;fillColor=none;fontColor=#1A1A1A;" vertex="1" parent="SVdXYpih-2KkBBQ6i95Y-86">
                    <mxGeometry x="-10" y="50" width="90" height="30" as="geometry"/>
                </mxCell>
                <mxCell id="SVdXYpih-2KkBBQ6i95Y-102" style="edgeStyle=entityRelationEdgeStyle;html=1;exitX=0.5;exitY=0;exitDx=0;exitDy=0;fontColor=#FFFFFF;" edge="1" parent="SVdXYpih-2KkBBQ6i95Y-1" source="SVdXYpih-2KkBBQ6i95Y-85" target="SVdXYpih-2KkBBQ6i95Y-101">
                    <mxGeometry relative="1" as="geometry"/>
                </mxCell>
                <mxCell id="SVdXYpih-2KkBBQ6i95Y-104" style="edgeStyle=none;html=1;entryX=1;entryY=0.5;entryDx=0;entryDy=0;" edge="1" parent="SVdXYpih-2KkBBQ6i95Y-1" source="SVdXYpih-2KkBBQ6i95Y-77" target="SVdXYpih-2KkBBQ6i95Y-85">
                    <mxGeometry relative="1" as="geometry"/>
                </mxCell>
                <mxCell id="SVdXYpih-2KkBBQ6i95Y-106" value="既存プロジェクト_追加モデル構築時&lt;br&gt;※単純再学習を除くモデル改修を想定" style="text;html=1;align=center;verticalAlign=middle;resizable=0;points=[];autosize=1;strokeColor=none;fillColor=none;" vertex="1" parent="SVdXYpih-2KkBBQ6i95Y-1">
                    <mxGeometry x="35" y="20" width="220" height="40" as="geometry"/>
                </mxCell>
                <mxCell id="v0FQVUiF5tZoUybMBT4n-0" value="&lt;font color=&quot;#ffffff&quot;&gt;PJ_modelB_schema&lt;/font&gt;" style="swimlane;whiteSpace=wrap;html=1;fillColor=#647687;strokeColor=#314354;fontColor=#ffffff;" vertex="1" parent="SVdXYpih-2KkBBQ6i95Y-1">
                    <mxGeometry x="329" y="797" width="370" height="120" as="geometry"/>
                </mxCell>
                <mxCell id="v0FQVUiF5tZoUybMBT4n-1" value="" style="group" vertex="1" connectable="0" parent="v0FQVUiF5tZoUybMBT4n-0">
                    <mxGeometry x="30" y="34" width="70" height="80" as="geometry"/>
                </mxCell>
                <mxCell id="v0FQVUiF5tZoUybMBT4n-2" value="" style="shape=table;startSize=10;container=1;collapsible=0;childLayout=tableLayout;fontStyle=1;align=center;" vertex="1" parent="v0FQVUiF5tZoUybMBT4n-1">
                    <mxGeometry x="10" y="10" width="50" height="40" as="geometry"/>
                </mxCell>
                <mxCell id="v0FQVUiF5tZoUybMBT4n-3" value="" style="shape=tableRow;horizontal=0;startSize=0;swimlaneHead=0;swimlaneBody=0;top=0;left=0;bottom=0;right=0;collapsible=0;dropTarget=0;fillColor=none;points=[[0,0.5],[1,0.5]];portConstraint=eastwest;" vertex="1" parent="v0FQVUiF5tZoUybMBT4n-2">
                    <mxGeometry y="10" width="50" height="12" as="geometry"/>
                </mxCell>
                <mxCell id="v0FQVUiF5tZoUybMBT4n-4" value="" style="shape=partialRectangle;html=1;whiteSpace=wrap;connectable=0;fillColor=none;top=0;left=0;bottom=0;right=0;overflow=hidden;" vertex="1" parent="v0FQVUiF5tZoUybMBT4n-3">
                    <mxGeometry width="14" height="12" as="geometry">
                        <mxRectangle width="14" height="12" as="alternateBounds"/>
                    </mxGeometry>
                </mxCell>
                <mxCell id="v0FQVUiF5tZoUybMBT4n-5" value="" style="shape=partialRectangle;html=1;whiteSpace=wrap;connectable=0;fillColor=none;top=0;left=0;bottom=0;right=0;overflow=hidden;" vertex="1" parent="v0FQVUiF5tZoUybMBT4n-3">
                    <mxGeometry x="14" width="20" height="12" as="geometry">
                        <mxRectangle width="20" height="12" as="alternateBounds"/>
                    </mxGeometry>
                </mxCell>
                <mxCell id="v0FQVUiF5tZoUybMBT4n-6" value="" style="shape=partialRectangle;html=1;whiteSpace=wrap;connectable=0;fillColor=none;top=0;left=0;bottom=0;right=0;overflow=hidden;" vertex="1" parent="v0FQVUiF5tZoUybMBT4n-3">
                    <mxGeometry x="34" width="16" height="12" as="geometry">
                        <mxRectangle width="16" height="12" as="alternateBounds"/>
                    </mxGeometry>
                </mxCell>
                <mxCell id="v0FQVUiF5tZoUybMBT4n-7" value="" style="shape=tableRow;horizontal=0;startSize=0;swimlaneHead=0;swimlaneBody=0;top=0;left=0;bottom=0;right=0;collapsible=0;dropTarget=0;fillColor=none;points=[[0,0.5],[1,0.5]];portConstraint=eastwest;" vertex="1" parent="v0FQVUiF5tZoUybMBT4n-2">
                    <mxGeometry y="22" width="50" height="9" as="geometry"/>
                </mxCell>
                <mxCell id="v0FQVUiF5tZoUybMBT4n-8" value="" style="shape=partialRectangle;html=1;whiteSpace=wrap;connectable=0;fillColor=none;top=0;left=0;bottom=0;right=0;overflow=hidden;" vertex="1" parent="v0FQVUiF5tZoUybMBT4n-7">
                    <mxGeometry width="14" height="9" as="geometry">
                        <mxRectangle width="14" height="9" as="alternateBounds"/>
                    </mxGeometry>
                </mxCell>
                <mxCell id="v0FQVUiF5tZoUybMBT4n-9" value="" style="shape=partialRectangle;html=1;whiteSpace=wrap;connectable=0;fillColor=none;top=0;left=0;bottom=0;right=0;overflow=hidden;" vertex="1" parent="v0FQVUiF5tZoUybMBT4n-7">
                    <mxGeometry x="14" width="20" height="9" as="geometry">
                        <mxRectangle width="20" height="9" as="alternateBounds"/>
                    </mxGeometry>
                </mxCell>
                <mxCell id="v0FQVUiF5tZoUybMBT4n-10" value="" style="shape=partialRectangle;html=1;whiteSpace=wrap;connectable=0;fillColor=none;top=0;left=0;bottom=0;right=0;overflow=hidden;" vertex="1" parent="v0FQVUiF5tZoUybMBT4n-7">
                    <mxGeometry x="34" width="16" height="9" as="geometry">
                        <mxRectangle width="16" height="9" as="alternateBounds"/>
                    </mxGeometry>
                </mxCell>
                <mxCell id="v0FQVUiF5tZoUybMBT4n-11" value="" style="shape=tableRow;horizontal=0;startSize=0;swimlaneHead=0;swimlaneBody=0;top=0;left=0;bottom=0;right=0;collapsible=0;dropTarget=0;fillColor=none;points=[[0,0.5],[1,0.5]];portConstraint=eastwest;" vertex="1" parent="v0FQVUiF5tZoUybMBT4n-2">
                    <mxGeometry y="31" width="50" height="9" as="geometry"/>
                </mxCell>
                <mxCell id="v0FQVUiF5tZoUybMBT4n-12" value="" style="shape=partialRectangle;html=1;whiteSpace=wrap;connectable=0;fillColor=none;top=0;left=0;bottom=0;right=0;overflow=hidden;" vertex="1" parent="v0FQVUiF5tZoUybMBT4n-11">
                    <mxGeometry width="14" height="9" as="geometry">
                        <mxRectangle width="14" height="9" as="alternateBounds"/>
                    </mxGeometry>
                </mxCell>
                <mxCell id="v0FQVUiF5tZoUybMBT4n-13" value="" style="shape=partialRectangle;html=1;whiteSpace=wrap;connectable=0;fillColor=none;top=0;left=0;bottom=0;right=0;overflow=hidden;" vertex="1" parent="v0FQVUiF5tZoUybMBT4n-11">
                    <mxGeometry x="14" width="20" height="9" as="geometry">
                        <mxRectangle width="20" height="9" as="alternateBounds"/>
                    </mxGeometry>
                </mxCell>
                <mxCell id="v0FQVUiF5tZoUybMBT4n-14" value="" style="shape=partialRectangle;html=1;whiteSpace=wrap;connectable=0;fillColor=none;top=0;left=0;bottom=0;right=0;overflow=hidden;" vertex="1" parent="v0FQVUiF5tZoUybMBT4n-11">
                    <mxGeometry x="34" width="16" height="9" as="geometry">
                        <mxRectangle width="16" height="9" as="alternateBounds"/>
                    </mxGeometry>
                </mxCell>
                <mxCell id="v0FQVUiF5tZoUybMBT4n-15" value="" style="shape=image;verticalLabelPosition=bottom;labelBackgroundColor=default;verticalAlign=top;aspect=fixed;imageAspect=0;image=https://techdiw.com/wp-content/uploads/2023/02/Delta-Lake-logo-1.jpg;clipPath=inset(8.33% 33.33% 8.33% 33.33%);" vertex="1" parent="v0FQVUiF5tZoUybMBT4n-1">
                    <mxGeometry width="20" height="20" as="geometry"/>
                </mxCell>
                <mxCell id="v0FQVUiF5tZoUybMBT4n-16" value="features" style="text;html=1;align=center;verticalAlign=middle;resizable=0;points=[];autosize=1;strokeColor=none;fillColor=none;fontColor=#1A1A1A;" vertex="1" parent="v0FQVUiF5tZoUybMBT4n-1">
                    <mxGeometry y="50" width="70" height="30" as="geometry"/>
                </mxCell>
                <mxCell id="v0FQVUiF5tZoUybMBT4n-70" value="" style="shape=table;startSize=10;container=1;collapsible=0;childLayout=tableLayout;fontStyle=1;align=center;" vertex="1" parent="v0FQVUiF5tZoUybMBT4n-0">
                    <mxGeometry x="136" y="44" width="50" height="40" as="geometry"/>
                </mxCell>
                <mxCell id="v0FQVUiF5tZoUybMBT4n-71" value="" style="shape=tableRow;horizontal=0;startSize=0;swimlaneHead=0;swimlaneBody=0;top=0;left=0;bottom=0;right=0;collapsible=0;dropTarget=0;fillColor=none;points=[[0,0.5],[1,0.5]];portConstraint=eastwest;" vertex="1" parent="v0FQVUiF5tZoUybMBT4n-70">
                    <mxGeometry y="10" width="50" height="12" as="geometry"/>
                </mxCell>
                <mxCell id="v0FQVUiF5tZoUybMBT4n-72" value="" style="shape=partialRectangle;html=1;whiteSpace=wrap;connectable=0;fillColor=none;top=0;left=0;bottom=0;right=0;overflow=hidden;" vertex="1" parent="v0FQVUiF5tZoUybMBT4n-71">
                    <mxGeometry width="14" height="12" as="geometry">
                        <mxRectangle width="14" height="12" as="alternateBounds"/>
                    </mxGeometry>
                </mxCell>
                <mxCell id="v0FQVUiF5tZoUybMBT4n-73" value="" style="shape=partialRectangle;html=1;whiteSpace=wrap;connectable=0;fillColor=none;top=0;left=0;bottom=0;right=0;overflow=hidden;" vertex="1" parent="v0FQVUiF5tZoUybMBT4n-71">
                    <mxGeometry x="14" width="20" height="12" as="geometry">
                        <mxRectangle width="20" height="12" as="alternateBounds"/>
                    </mxGeometry>
                </mxCell>
                <mxCell id="v0FQVUiF5tZoUybMBT4n-74" value="" style="shape=partialRectangle;html=1;whiteSpace=wrap;connectable=0;fillColor=none;top=0;left=0;bottom=0;right=0;overflow=hidden;" vertex="1" parent="v0FQVUiF5tZoUybMBT4n-71">
                    <mxGeometry x="34" width="16" height="12" as="geometry">
                        <mxRectangle width="16" height="12" as="alternateBounds"/>
                    </mxGeometry>
                </mxCell>
                <mxCell id="v0FQVUiF5tZoUybMBT4n-75" value="" style="shape=tableRow;horizontal=0;startSize=0;swimlaneHead=0;swimlaneBody=0;top=0;left=0;bottom=0;right=0;collapsible=0;dropTarget=0;fillColor=none;points=[[0,0.5],[1,0.5]];portConstraint=eastwest;" vertex="1" parent="v0FQVUiF5tZoUybMBT4n-70">
                    <mxGeometry y="22" width="50" height="9" as="geometry"/>
                </mxCell>
                <mxCell id="v0FQVUiF5tZoUybMBT4n-76" value="" style="shape=partialRectangle;html=1;whiteSpace=wrap;connectable=0;fillColor=none;top=0;left=0;bottom=0;right=0;overflow=hidden;" vertex="1" parent="v0FQVUiF5tZoUybMBT4n-75">
                    <mxGeometry width="14" height="9" as="geometry">
                        <mxRectangle width="14" height="9" as="alternateBounds"/>
                    </mxGeometry>
                </mxCell>
                <mxCell id="v0FQVUiF5tZoUybMBT4n-77" value="" style="shape=partialRectangle;html=1;whiteSpace=wrap;connectable=0;fillColor=none;top=0;left=0;bottom=0;right=0;overflow=hidden;" vertex="1" parent="v0FQVUiF5tZoUybMBT4n-75">
                    <mxGeometry x="14" width="20" height="9" as="geometry">
                        <mxRectangle width="20" height="9" as="alternateBounds"/>
                    </mxGeometry>
                </mxCell>
                <mxCell id="v0FQVUiF5tZoUybMBT4n-78" value="" style="shape=partialRectangle;html=1;whiteSpace=wrap;connectable=0;fillColor=none;top=0;left=0;bottom=0;right=0;overflow=hidden;" vertex="1" parent="v0FQVUiF5tZoUybMBT4n-75">
                    <mxGeometry x="34" width="16" height="9" as="geometry">
                        <mxRectangle width="16" height="9" as="alternateBounds"/>
                    </mxGeometry>
                </mxCell>
                <mxCell id="v0FQVUiF5tZoUybMBT4n-79" value="" style="shape=tableRow;horizontal=0;startSize=0;swimlaneHead=0;swimlaneBody=0;top=0;left=0;bottom=0;right=0;collapsible=0;dropTarget=0;fillColor=none;points=[[0,0.5],[1,0.5]];portConstraint=eastwest;" vertex="1" parent="v0FQVUiF5tZoUybMBT4n-70">
                    <mxGeometry y="31" width="50" height="9" as="geometry"/>
                </mxCell>
                <mxCell id="v0FQVUiF5tZoUybMBT4n-80" value="" style="shape=partialRectangle;html=1;whiteSpace=wrap;connectable=0;fillColor=none;top=0;left=0;bottom=0;right=0;overflow=hidden;" vertex="1" parent="v0FQVUiF5tZoUybMBT4n-79">
                    <mxGeometry width="14" height="9" as="geometry">
                        <mxRectangle width="14" height="9" as="alternateBounds"/>
                    </mxGeometry>
                </mxCell>
                <mxCell id="v0FQVUiF5tZoUybMBT4n-81" value="" style="shape=partialRectangle;html=1;whiteSpace=wrap;connectable=0;fillColor=none;top=0;left=0;bottom=0;right=0;overflow=hidden;" vertex="1" parent="v0FQVUiF5tZoUybMBT4n-79">
                    <mxGeometry x="14" width="20" height="9" as="geometry">
                        <mxRectangle width="20" height="9" as="alternateBounds"/>
                    </mxGeometry>
                </mxCell>
                <mxCell id="v0FQVUiF5tZoUybMBT4n-82" value="" style="shape=partialRectangle;html=1;whiteSpace=wrap;connectable=0;fillColor=none;top=0;left=0;bottom=0;right=0;overflow=hidden;" vertex="1" parent="v0FQVUiF5tZoUybMBT4n-79">
                    <mxGeometry x="34" width="16" height="9" as="geometry">
                        <mxRectangle width="16" height="9" as="alternateBounds"/>
                    </mxGeometry>
                </mxCell>
                <mxCell id="v0FQVUiF5tZoUybMBT4n-85" value="" style="shape=image;verticalLabelPosition=bottom;labelBackgroundColor=default;verticalAlign=top;aspect=fixed;imageAspect=0;image=https://techdiw.com/wp-content/uploads/2023/02/Delta-Lake-logo-1.jpg;clipPath=inset(8.33% 33.33% 8.33% 33.33%);" vertex="1" parent="v0FQVUiF5tZoUybMBT4n-0">
                    <mxGeometry x="131" y="34" width="20" height="20" as="geometry"/>
                </mxCell>
                <mxCell id="v0FQVUiF5tZoUybMBT4n-84" value="output_result" style="text;html=1;align=center;verticalAlign=middle;resizable=0;points=[];autosize=1;strokeColor=none;fillColor=none;fontColor=#1A1A1A;" vertex="1" parent="v0FQVUiF5tZoUybMBT4n-0">
                    <mxGeometry x="116" y="84" width="90" height="30" as="geometry"/>
                </mxCell>
                <mxCell id="v0FQVUiF5tZoUybMBT4n-17" value="&lt;font color=&quot;#ffffff&quot;&gt;Model_B_Train_Pipline&lt;/font&gt;" style="swimlane;whiteSpace=wrap;html=1;fillColor=#647687;strokeColor=#314354;direction=west;fillStyle=auto;fontColor=#ffffff;" vertex="1" parent="SVdXYpih-2KkBBQ6i95Y-1">
                    <mxGeometry x="330" y="610" width="550" height="140" as="geometry"/>
                </mxCell>
                <mxCell id="v0FQVUiF5tZoUybMBT4n-18" value="Model Pipline Job" style="text;html=1;align=center;verticalAlign=middle;resizable=0;points=[];autosize=1;strokeColor=none;fillColor=none;fontColor=#1A1A1A;" vertex="1" parent="v0FQVUiF5tZoUybMBT4n-17">
                    <mxGeometry x="4" width="120" height="30" as="geometry"/>
                </mxCell>
                <mxCell id="v0FQVUiF5tZoUybMBT4n-19" value="FeatureCreate" style="whiteSpace=wrap;html=1;labelBackgroundColor=none;fillStyle=auto;strokeColor=#314354;fontColor=#ffffff;fillColor=#647687;" vertex="1" parent="v0FQVUiF5tZoUybMBT4n-17">
                    <mxGeometry x="20" y="45" width="100" height="56.5" as="geometry"/>
                </mxCell>
                <mxCell id="v0FQVUiF5tZoUybMBT4n-20" value="Modeling" style="whiteSpace=wrap;html=1;labelBackgroundColor=none;fillStyle=auto;strokeColor=#314354;fontColor=#ffffff;fillColor=#647687;" vertex="1" parent="v0FQVUiF5tZoUybMBT4n-17">
                    <mxGeometry x="150" y="45" width="100" height="56.5" as="geometry"/>
                </mxCell>
                <mxCell id="v0FQVUiF5tZoUybMBT4n-21" value="Model deployment test" style="whiteSpace=wrap;html=1;labelBackgroundColor=none;fillStyle=auto;strokeColor=#314354;fontColor=#ffffff;fillColor=#647687;" vertex="1" parent="v0FQVUiF5tZoUybMBT4n-17">
                    <mxGeometry x="410" y="45" width="100" height="56.5" as="geometry"/>
                </mxCell>
                <mxCell id="v0FQVUiF5tZoUybMBT4n-22" value="Model &lt;br&gt;inference&amp;nbsp; test" style="whiteSpace=wrap;html=1;labelBackgroundColor=none;fillStyle=auto;strokeColor=#314354;fontColor=#ffffff;fillColor=#647687;" vertex="1" parent="v0FQVUiF5tZoUybMBT4n-17">
                    <mxGeometry x="280" y="45" width="100" height="56.5" as="geometry"/>
                </mxCell>
                <mxCell id="v0FQVUiF5tZoUybMBT4n-39" style="edgeStyle=orthogonalEdgeStyle;curved=1;html=1;" edge="1" parent="SVdXYpih-2KkBBQ6i95Y-1" source="v0FQVUiF5tZoUybMBT4n-23" target="v0FQVUiF5tZoUybMBT4n-29">
                    <mxGeometry relative="1" as="geometry"/>
                </mxCell>
                <mxCell id="v0FQVUiF5tZoUybMBT4n-23" value="&lt;font color=&quot;#ffffff&quot;&gt;PJ_modelB_schema&lt;/font&gt;" style="swimlane;whiteSpace=wrap;html=1;fillColor=#647687;strokeColor=#314354;fontColor=#ffffff;" vertex="1" parent="SVdXYpih-2KkBBQ6i95Y-1">
                    <mxGeometry x="749" y="797" width="130" height="121" as="geometry"/>
                </mxCell>
                <mxCell id="v0FQVUiF5tZoUybMBT4n-24" value="" style="shape=image;verticalLabelPosition=bottom;labelBackgroundColor=default;verticalAlign=top;aspect=fixed;imageAspect=0;image=data:image/png,iVBORw0KGgoAAAANSUhEUgAAAEEAAAA/CAYAAAC/36X0AAABYmlDQ1BJQ0MgUHJvZmlsZQAAKJFtkDtLA1EQhc9qwkK0CMEHiEUai4X4WoPEMsZFhRRLohgtlN2bmBiSeNmsiKWgjT9A/AXa2EewCZY24gMFtbSwF7bRsM5N1CTqHYbzcZgZ5g7Q4Tc4L3gAFEu2lZidDqaWV4LyK3yQ0YdR9BuszKO6HqcSfGv7c+4hCb0dFrPO8pp3//kyoJzcrD1dr+7+rW97vnSmzEg/KCcZt2xAChPr2zYXvEfcY9FSxEeCsw0+FWw2uFqvWUjEiO+I/SxnpIlfiENmi59t4WJhi33tILbvzpQWk6QDlIOYgYY4RRBJIpViHFOYQ4ru9H9fuN4XwyY4dmBhA1nkYNOEKDkcBWSI51ECwwhCxCrGKMPi3r/v2PSYBqgmwVXTyx8A5730hUjTU2QgQP7FEDcs4+e6kuMpr0+oDe6qAN5D131bAmQFqD247nvFdWvHQOcjUHU+Aax3Y1Htm0kaAAAAOGVYSWZNTQAqAAAACAABh2kABAAAAAEAAAAaAAAAAAACoAIABAAAAAEAAABBoAMABAAAAAEAAAA/AAAAAJm93NcAABAiSURBVHgB7VtpWFXXFV3M86CCCMigIKLggDiLAs7G1FSjNURNzBy/tCbN16Zp035Ja2ObNm1tOiQdTGIGTTDGOc4G4xgHEEdUQEAUEARRUCahax96Xy6P95je0/wI2+9x77v33PPO3Xefvdda52pTdauiAd9xs/2O37+6/U4n0A2dTuh0QmMy6IwE+sG+0Rffzt/q2lpU3LqNmro7cHZ0gLuLMxzsmw+ptq4ON9iuju1cnBzh4eoCGxsbqw26+S9areuWO8orKsaXaaeQnnkRlbeq0L2rN2L79sbYQf3RzdPTcPHN27ex62g6DpzKoMOq4O/bFVOGx2B4ZB9DG0t3vpXpUFR2HX9fuwXLN+2EHZ/8wD69cO3GTbz1+RdY/eUBVPDGxe7U12MPHfXWms2oqq1D3+CeSLtwEa8uX4VLV4stvXfD9Xc9Esp4c1lXCnH1+g0Vzj7eHjiVnYe089n4yUMzEDewP7zd3XDlWik+3JaC7UeOI35wNPqF9EQNb1yioE9QIF5+eCb8GC1jB0biyT++jR1H0vH49ImGG7Fk56454WpZOT5LOYDdaSdRwCdfy/lsB85jWxvcrqlBNJ/q+NiBzAMuavw9fX0wPmYAUtLP4ERWDiJ6BqChoYG54BaCe/jBv1tXlQci6RxnR0cUs09r2V1xwvlLl/HXzzZj/8lzCPLtguERYZjGeezj7YVDZ85h44GjOJ2Tj21fp+HBhNGGe/F0c1WJUaZLfUM97Oxs0SugB3PHaaTQmcOYB5Z/sRMljK4R/fsarrN0x+pOyLxcgDdWrkVGbj5+ljQDc8bHwd7OzjDOIX3D8APe+NKP1mDJB6vhzxAfzSmhNwaAMicHB8xh2x1HT2DRsv/A09kFpZUVmDl6GBKGDNBfYtG+VZ1wvaISybv3IbewGC/Pm8UsPqSJA7SR+nTxxiuPzkHmlSL8btVafNgrCN4eHtppw1ZK4/6TZ+Fob4d5dKZ/1y6ICu2JoVERhjb1TJ6VVdW4XV3DKLKDRJOdbfvyvVWdkF98DXuOn8HUETFI4Px2dDDfvZTB+RPj8PLyT7DlYCqSJscbbkzbOX/pCpJTDqrcsfjB6XBzdtZOqa0kTskfu4+dQB6rhThg7KAoTGCUODKK2mrtc1kLvdbduaMGVMNtLHOAABrNpORt/TpVRYh2TLZTRsTC19MDucQMxiY54T8bd8DVyQkz40Y0c4C0zy8uxt9YPlNZNkOZPMsYia9ziqUcP2XcXYvfreiEepy6mMun4YKevt2a/GgNkeG7m3fhKzW4b+QLL5bG3zz+EKaOHNKkfeMXG0RzmjwyeRzxQWCz8+L0g6fP40ppGRZOS8Di2dPxyoLZ6O3fHZ/u2tesfUsHzMdrS1eZOsdsVnm7Gm6EvlL39ebq5IxeHNymQ8cQE9Eb0b1DDKcF/ZkyW8LipEnj1ClTELm+vgEF18pYQexU+ZTwlzIb4NMN5/LyTXVp9pjVIoFFnKHrSEdUQRKk3pzICx6dmqjAz5+TN0BKqN4a0KBKov6Y7EsOMM4DWhtJgqOYIKuZEFPPZeEWk+Phs+dxgNEhWKI9ZrVIsGdNHxAWiv3EAZeulhDlBRjGIU+yX2gQfjF/Fl57PxnzlixDZLA/IgIDFJKUJzorfiRi+vQ2XNPaTlVNLY6czSTSLMPSVeuIH3ahtOIWAlhyXyQSbY9Z0Ql2JDXhWLnjKxw9n4Xh/SMUK9QGI44Y1i8C77z4DLZwWqQTOqdm5aKbhxvbhnO6+GlNW90K83xvyy6s2XMITxE6x5B7CD7x7eKJxCED0cXdvdU+9A2s5gTp1MPVlQjPD18cSsU4ssGRCtU1IJt4INjPV2GGIG4fnTZB1fQa4gApo7Y2jbPybM4l/dhM7pcSLX6wLYVEaz+SJozFwvsmKGdPGDrIZPu2HLSaE+QGvjpxBhcuF6KYZEm4g5S50vKbWLJiNSbGDsCIqL5wYCJLITMM7uFLMhRlcEBbBlt8vRwfbduDdfsOYz5xxYIpCU2irS19mGpjsROE5GwmF3hv25coKClFIMvjU/dPwABWABv+k+wd7OejKPJWMkR7JrRiOuip6ZM4nm/KpfHgzlzMw16iRb2JBpGemcskm4C5E+LMJk39NW3Zt9gJu4jWfvvxGriT2f384VmIDgtBdxIlKZViXTzc8fzs+5GRdxnvcx6nXcjBc9+fgglkkHpOYTxY0ReOZWQ2OVx7p54OiMcMM+CpSeN2fLHICTI/P9q+R+GDZc89hqFMjKZurCtR4UgmSg865vckV4czsgiQYuGuQ5XGYx7OfBJD5Glsbs5O7YLExteb+m6RE7aSCh+5kI35JDcjOd/FhNDkFV1VHKKaZSyROD4ssAdsSWqkhM6bOJZK0RfIYu7wI5EyBYSkHycmTNEc22MyuSoJ0bcfTmOZvka5LoyfcDgTv7SkSHbYCdUURoS8+DLcn54h8xsQKLvj6HG8QWZYV1ePeh57h/h/8axpWECwJOxuWL8+VJQeQJ+e/s0cIACoq6c7p5ITr2xp2PJrze0iFawX3lqOfKpUARRhVpLRThs2GItmTlMOb35F45EOO0EYY8blK+jNkujyf3ZXVHoda8j6wgP88Rx/2IEAauXOfXh743a260FRxROenAIhrAyFbFvHOV5FZ4qAKlNDEmkitYXuXbxQXVuD0xcLVSkVMia0WlBhS/b+lt1Kuf7TswsxOCIUnxNHiICTnpmDiSyhAsVNWYedUEF4XFVdC28/N0PnwunLK28pIURDf0njG/Dxrr1485N1CPTpqoCNsMYcag6TObCCkjKcIPEayKkSwiqy5/hphR3CGClLP1yteMig8FCUlN/AhfxCU/dgOHaaQs4kTr9ElmOxuIH9sP1YukKwdQqTOBja6nc67ASBybbUC2s5BTQlSMqfrBtkF1xFOfmD8Pt0okJ3Rsr3x41QBMePlSOSEPpG5W3SX1+VVKPDQ+ArFYVzV2aBB3VHqTDzpySq3ODLCBIHx/Ztykn0NyL7kqRz6GDBE5KMi1iKq/mguhCVtiS0dNgJgWRrwT4+yC8qUdK4DEIGPj4mGitJZYU/uJA4pRBA3Td8MB6eOE4JpEKrpfzJIEU+05uwv4PkAw+MHgqh2TPGDNOfbnXf2dEev3r3EyxmXggiXjnLsuzj5UFKHqzwirkO7H75yi9eM3eypePCDEX73556gjfvqcCRREHvQD/0ZNhfKblGxNig9MQn7p/IZNcosqRSal+y4jPiezdFr/XVIZ+O+2T3fkSSfPUPCVaR1tIYjM8FdfdBLHlEOYmUqNFxA/op9hrGHCVRa846HAkyeNECNlEae4vK8lDqBLI+4E3yMp1CqHyM7frNCq4XHGeSq1XVQcpmM/v/WIVey+KLsUly0ztOf14eQiwVafm0xzrsBPmRsEB/PEZV5xWG4At/fw///PHTCDXBBgVayzxN5lPeQmyxcFoiGZ9Xi+M8nZ2LNXsPNWkjDnhgzHAMCu+lcEeTkxZ8scgJ8rszx43Ciq0pKBTCRLVHTBGnGxVqsVWU4LKbldhKAKO0Pz7pfeQEAVxTnDR0sEmEKX1cr6xkkiuRXYMJKTvG6STwfFR0pNmIMFzQxh2LnSBKUhGfcmSQP/NBD/WzZQx7obtpRJM3WQVk9UlI1DP3T4IrYe+u1JP4S/JG9OX0EfxgykZFRSq0pz8nlPwf67bi1yuS8VLSTIxnOTQ3NfTXtbZvsRMkzMuIDaQMaSagx8PVmfM+QGEDwQf9KXmJliCDDqXe+KO/vYtDp8+ZdYKdrR1hc9PqIVjiJ3Nn4M1PN+B1Lt4IoJo6Yki76Lg2Rv3WYicILhdkWFlVY+hXhNaHyCcEP8iTNyZVEYyApMTRajHFcBF3JBFqU0p/XL8vjv3VI3PwOzrhz8mbcIeoU4BZFpWlAJZFyVPmkKG+H/2+xU7owVWhkO6+FFMKiBYr4eVGBMmsLyqTORNi9ASnhj2ftt4kgcqnNRNJ/9WFc/EbTovXKNhIuRakKgwzfkAklj69QIG21vrRzpuoUdqptm3lKY8mKcoll1hLrN76LRAUckrIoop+hUquu1xcCqHnbTHhF88+MBmedKiscC9b9Ahmxw3HxoNpzDfr29KFoY3FTpCe5pMh+nl6KdkrK/+KoXNtR56ukKuzuZcUEdKOa1sBVVn5BWpdoojSnGZynSmsIOcFrktOsSflfmbGZEziuudL8x7E1GEDWX0ytC7atLWKEyTDi6SWTR3hnfXbqCcUK11BG4Gow8tWb8C/SavLWDq1m5OtVBJ5YeOj7SnIpsbgzpAW40oEbzIDJ7Nz1Pdmfxg6NhRoRbPUok8guexrwm2za8wcsDgnaP3OmxzPtcFr2Mw1R3m1Znb8KGoH4UoHlJXlQ2cu4IfUFboRYucUXuUS2jlVOi8wAs5QpPVkNZk+agg28Xox+gf/3bSDmqQDljyRRHrtrf2U2gqBG9G/DxHrUSRTeS6ghiA44ggluUenJDRp29qXDnMH447liUjdl6f7Fd822ccXrbILipDJ6bHx4DGyRE/O4akqF2RT/NjJ13Ay+eSF3Y2iKiXvIQj2F8U6JjyUS/AhSqdcv/+IWt8UEqTHBLIvfES0BknKaVyFKuCUS+CrPklUr6QqtdWsFgkyqADigae+N1lpA/Lu0QmKqnKz1zkdnpicYFijlGWy5+d8T5U3V2dHVhRXpRuepFKltzEkQKOj++LzvYcVSZOV56AePmSnjTco1WAacYK8wXKDpMnZyUFR8vbKclZzggxeHCEYQZTkURy8aIwl5eV45s1/NWFx5tYYJQnKNHCici26gryzOJd440Xykhf+uYIva9gjig5cNGMK4ri4IyZ0XMCYfDpqVkmMxj8uZdOTOEGEkn6kxFLX85gvhFO0ZNe4UGPP6RFEiC1YQ1UNhvqt6mrcN2wQHudcv0MI/tK/PkAhc4C17K44wXhw8TFROEYesf3wcbMlT5Sor7mq3J0iiK+XlwSCiqQtXNIbQ7K05Ml5WMwp9MazC1BFR6xq5zsIxmPSf78nThAI3Y9JU6j00YwLTQRTSaRXKYCsJW0+wIohL2wIENLsDvGAhLxMEzEX5gFXThcph9Yyq+YEc4MSzfBpwuS3N2zDH1at58uaUQgn43TmzQlOkLJ2KicPiXzPST6a7CaapfACKZsf79yj4PneE2eVQj2WIqq1zOZe/fcfkczPUg2Wui6Lt9U1daqcOjnYKTVKFOL4QdFKltduTp7+5ZISyvZ71TvQVRRbJfEKhX6IK9KyzmkNu2dOkMFK6MvcL2ECrKyqUusO8naL1HoBQ3ouod2cJMcbJEeXqVmKE2RtUxZ9tWjR2lmyvadOsGSgd/Pae5IY7+YNWKPvTifQi51O6HRC42TqjITOSOiMhEYPWDsSqsj2RHE2Zos1fBGj9ObNZscNozCxIyxx/6mmb6/pm8lbMcdJygr5grelZrWcIIOSlzFm/vIPOEwpTTPRCH769go8+Oqb6v1G7XhrW1m9fuPjtWabyf+pFPlN2llq/wMnkUCr72YtZgAAAABJRU5ErkJggg==;clipPath=inset(0% 0% 0% 0% round 50%);" vertex="1" parent="v0FQVUiF5tZoUybMBT4n-23">
                    <mxGeometry x="37.66" y="44" width="54.68" height="52.997538461538454" as="geometry"/>
                </mxCell>
                <mxCell id="v0FQVUiF5tZoUybMBT4n-25" value="model registory" style="text;html=1;align=center;verticalAlign=middle;resizable=0;points=[];autosize=1;strokeColor=none;fillColor=none;fontColor=#1A1A1A;" vertex="1" parent="v0FQVUiF5tZoUybMBT4n-23">
                    <mxGeometry x="10" y="91" width="110" height="30" as="geometry"/>
                </mxCell>
                <mxCell id="v0FQVUiF5tZoUybMBT4n-26" value="&lt;font color=&quot;#ffffff&quot;&gt;Model_B_Inference_Pipline&lt;/font&gt;" style="swimlane;whiteSpace=wrap;html=1;fillColor=#647687;strokeColor=#314354;direction=west;fillStyle=auto;fontColor=#ffffff;" vertex="1" parent="SVdXYpih-2KkBBQ6i95Y-1">
                    <mxGeometry x="329" y="964" width="550" height="140" as="geometry"/>
                </mxCell>
                <mxCell id="v0FQVUiF5tZoUybMBT4n-27" value="Model Inference Job" style="text;html=1;align=center;verticalAlign=middle;resizable=0;points=[];autosize=1;strokeColor=none;fillColor=none;fontColor=#1A1A1A;" vertex="1" parent="v0FQVUiF5tZoUybMBT4n-26">
                    <mxGeometry x="-1" width="130" height="30" as="geometry"/>
                </mxCell>
                <mxCell id="v0FQVUiF5tZoUybMBT4n-28" value="FeatureCreate" style="whiteSpace=wrap;html=1;labelBackgroundColor=none;fillStyle=auto;strokeColor=#314354;fontColor=#ffffff;fillColor=#647687;" vertex="1" parent="v0FQVUiF5tZoUybMBT4n-26">
                    <mxGeometry x="20" y="45" width="100" height="56.5" as="geometry"/>
                </mxCell>
                <mxCell id="v0FQVUiF5tZoUybMBT4n-29" value="inference" style="whiteSpace=wrap;html=1;labelBackgroundColor=none;fillStyle=auto;strokeColor=#314354;fontColor=#ffffff;fillColor=#647687;" vertex="1" parent="v0FQVUiF5tZoUybMBT4n-26">
                    <mxGeometry x="150" y="45" width="100" height="56.5" as="geometry"/>
                </mxCell>
                <mxCell id="v0FQVUiF5tZoUybMBT4n-32" style="edgeStyle=orthogonalEdgeStyle;html=1;exitX=0.5;exitY=1;exitDx=0;exitDy=0;curved=1;entryX=0;entryY=0.5;entryDx=0;entryDy=0;" edge="1" parent="SVdXYpih-2KkBBQ6i95Y-1" source="v0FQVUiF5tZoUybMBT4n-19" target="v0FQVUiF5tZoUybMBT4n-0">
                    <mxGeometry relative="1" as="geometry">
                        <mxPoint x="350" y="780" as="targetPoint"/>
                    </mxGeometry>
                </mxCell>
                <mxCell id="v0FQVUiF5tZoUybMBT4n-34" style="edgeStyle=orthogonalEdgeStyle;curved=1;html=1;exitX=0.5;exitY=0;exitDx=0;exitDy=0;entryX=0.486;entryY=1.133;entryDx=0;entryDy=0;entryPerimeter=0;" edge="1" parent="SVdXYpih-2KkBBQ6i95Y-1" source="v0FQVUiF5tZoUybMBT4n-28" target="v0FQVUiF5tZoUybMBT4n-16">
                    <mxGeometry relative="1" as="geometry"/>
                </mxCell>
                <mxCell id="v0FQVUiF5tZoUybMBT4n-37" style="edgeStyle=orthogonalEdgeStyle;curved=1;html=1;exitX=0.5;exitY=0;exitDx=0;exitDy=0;" edge="1" parent="SVdXYpih-2KkBBQ6i95Y-1" source="v0FQVUiF5tZoUybMBT4n-2" target="v0FQVUiF5tZoUybMBT4n-20">
                    <mxGeometry relative="1" as="geometry"/>
                </mxCell>
                <mxCell id="v0FQVUiF5tZoUybMBT4n-38" style="edgeStyle=orthogonalEdgeStyle;curved=1;html=1;exitX=0.5;exitY=1;exitDx=0;exitDy=0;entryX=0.5;entryY=0;entryDx=0;entryDy=0;" edge="1" parent="SVdXYpih-2KkBBQ6i95Y-1" source="v0FQVUiF5tZoUybMBT4n-21" target="v0FQVUiF5tZoUybMBT4n-23">
                    <mxGeometry relative="1" as="geometry"/>
                </mxCell>
                <mxCell id="v0FQVUiF5tZoUybMBT4n-87" style="edgeStyle=orthogonalEdgeStyle;curved=1;html=1;exitX=0.25;exitY=0;exitDx=0;exitDy=0;" edge="1" parent="SVdXYpih-2KkBBQ6i95Y-1" source="v0FQVUiF5tZoUybMBT4n-29" target="v0FQVUiF5tZoUybMBT4n-84">
                    <mxGeometry relative="1" as="geometry"/>
                </mxCell>
                <mxCell id="DS8wRNlFnW8IOCvolTLS-0" value="ポイント&lt;br&gt;&lt;div style=&quot;&quot;&gt;&lt;ul&gt;&lt;li&gt;同一PJで新しくモデルを構築する場合は、別スキーマでモデル/データ/コード(Repo)を用意する事&lt;/li&gt;&lt;li&gt;そうすることで同時並行運用＆旧戻しが簡易となる&lt;/li&gt;&lt;li&gt;また、案件固有のデータはcommmon_schemaに格納されているため、コードさえあれば同じモデルを再現できる算段&lt;/li&gt;&lt;ul&gt;&lt;li&gt;旧モデルを一度廃止したとしても復活が用意&lt;/li&gt;&lt;/ul&gt;&lt;/ul&gt;&lt;/div&gt;" style="rounded=0;whiteSpace=wrap;html=1;align=left;" vertex="1" parent="SVdXYpih-2KkBBQ6i95Y-1">
                    <mxGeometry x="35" y="1130" width="550" height="160" as="geometry"/>
                </mxCell>
                <mxCell id="JqaX5MZEhnC9Waktd16G-0" value="残検討課題&lt;br&gt;&lt;div style=&quot;&quot;&gt;&lt;ul&gt;&lt;li&gt;コードのリリースをどう自動化出来るか（とは言え、コード変更の都度勝手に特徴量やモデル作り始められてもちょっと困る？）&lt;/li&gt;&lt;li&gt;テストはどこまで自動化するか&lt;/li&gt;&lt;ul&gt;&lt;li&gt;どの環境でどんなテストを行うべきか&lt;/li&gt;&lt;li&gt;個人的には👆️の仕組みをpocスキーマで一通り動かし処理が問題ないことを確認できれば良さそう&lt;/li&gt;&lt;/ul&gt;&lt;/ul&gt;&lt;/div&gt;" style="rounded=0;whiteSpace=wrap;html=1;align=left;" vertex="1" parent="SVdXYpih-2KkBBQ6i95Y-1">
                    <mxGeometry x="35" y="1310" width="550" height="160" as="geometry"/>
                </mxCell>
                <mxCell id="aWxg0yhKqH9qwheQMupa-0" value="PJ_DMT_schema" style="swimlane;whiteSpace=wrap;html=1;fillColor=#e3c800;fontColor=#FFFFFF;strokeColor=#B09500;" vertex="1" parent="SVdXYpih-2KkBBQ6i95Y-1">
                    <mxGeometry x="80" y="598.5" width="130" height="231.5" as="geometry">
                        <mxRectangle x="60" y="280" width="150" height="30" as="alternateBounds"/>
                    </mxGeometry>
                </mxCell>
                <mxCell id="aWxg0yhKqH9qwheQMupa-1" value="" style="shape=table;startSize=10;container=1;collapsible=0;childLayout=tableLayout;fontStyle=1;align=center;" vertex="1" parent="aWxg0yhKqH9qwheQMupa-0">
                    <mxGeometry x="40" y="60" width="50" height="40" as="geometry"/>
                </mxCell>
                <mxCell id="aWxg0yhKqH9qwheQMupa-2" value="" style="shape=tableRow;horizontal=0;startSize=0;swimlaneHead=0;swimlaneBody=0;top=0;left=0;bottom=0;right=0;collapsible=0;dropTarget=0;fillColor=none;points=[[0,0.5],[1,0.5]];portConstraint=eastwest;" vertex="1" parent="aWxg0yhKqH9qwheQMupa-1">
                    <mxGeometry y="10" width="50" height="12" as="geometry"/>
                </mxCell>
                <mxCell id="aWxg0yhKqH9qwheQMupa-3" value="" style="shape=partialRectangle;html=1;whiteSpace=wrap;connectable=0;fillColor=none;top=0;left=0;bottom=0;right=0;overflow=hidden;" vertex="1" parent="aWxg0yhKqH9qwheQMupa-2">
                    <mxGeometry width="14" height="12" as="geometry">
                        <mxRectangle width="14" height="12" as="alternateBounds"/>
                    </mxGeometry>
                </mxCell>
                <mxCell id="aWxg0yhKqH9qwheQMupa-4" value="" style="shape=partialRectangle;html=1;whiteSpace=wrap;connectable=0;fillColor=none;top=0;left=0;bottom=0;right=0;overflow=hidden;" vertex="1" parent="aWxg0yhKqH9qwheQMupa-2">
                    <mxGeometry x="14" width="20" height="12" as="geometry">
                        <mxRectangle width="20" height="12" as="alternateBounds"/>
                    </mxGeometry>
                </mxCell>
                <mxCell id="aWxg0yhKqH9qwheQMupa-5" value="" style="shape=partialRectangle;html=1;whiteSpace=wrap;connectable=0;fillColor=none;top=0;left=0;bottom=0;right=0;overflow=hidden;" vertex="1" parent="aWxg0yhKqH9qwheQMupa-2">
                    <mxGeometry x="34" width="16" height="12" as="geometry">
                        <mxRectangle width="16" height="12" as="alternateBounds"/>
                    </mxGeometry>
                </mxCell>
                <mxCell id="aWxg0yhKqH9qwheQMupa-6" value="" style="shape=tableRow;horizontal=0;startSize=0;swimlaneHead=0;swimlaneBody=0;top=0;left=0;bottom=0;right=0;collapsible=0;dropTarget=0;fillColor=none;points=[[0,0.5],[1,0.5]];portConstraint=eastwest;" vertex="1" parent="aWxg0yhKqH9qwheQMupa-1">
                    <mxGeometry y="22" width="50" height="9" as="geometry"/>
                </mxCell>
                <mxCell id="aWxg0yhKqH9qwheQMupa-7" value="" style="shape=partialRectangle;html=1;whiteSpace=wrap;connectable=0;fillColor=none;top=0;left=0;bottom=0;right=0;overflow=hidden;" vertex="1" parent="aWxg0yhKqH9qwheQMupa-6">
                    <mxGeometry width="14" height="9" as="geometry">
                        <mxRectangle width="14" height="9" as="alternateBounds"/>
                    </mxGeometry>
                </mxCell>
                <mxCell id="aWxg0yhKqH9qwheQMupa-8" value="" style="shape=partialRectangle;html=1;whiteSpace=wrap;connectable=0;fillColor=none;top=0;left=0;bottom=0;right=0;overflow=hidden;" vertex="1" parent="aWxg0yhKqH9qwheQMupa-6">
                    <mxGeometry x="14" width="20" height="9" as="geometry">
                        <mxRectangle width="20" height="9" as="alternateBounds"/>
                    </mxGeometry>
                </mxCell>
                <mxCell id="aWxg0yhKqH9qwheQMupa-9" value="" style="shape=partialRectangle;html=1;whiteSpace=wrap;connectable=0;fillColor=none;top=0;left=0;bottom=0;right=0;overflow=hidden;" vertex="1" parent="aWxg0yhKqH9qwheQMupa-6">
                    <mxGeometry x="34" width="16" height="9" as="geometry">
                        <mxRectangle width="16" height="9" as="alternateBounds"/>
                    </mxGeometry>
                </mxCell>
                <mxCell id="aWxg0yhKqH9qwheQMupa-10" value="" style="shape=tableRow;horizontal=0;startSize=0;swimlaneHead=0;swimlaneBody=0;top=0;left=0;bottom=0;right=0;collapsible=0;dropTarget=0;fillColor=none;points=[[0,0.5],[1,0.5]];portConstraint=eastwest;" vertex="1" parent="aWxg0yhKqH9qwheQMupa-1">
                    <mxGeometry y="31" width="50" height="9" as="geometry"/>
                </mxCell>
                <mxCell id="aWxg0yhKqH9qwheQMupa-11" value="" style="shape=partialRectangle;html=1;whiteSpace=wrap;connectable=0;fillColor=none;top=0;left=0;bottom=0;right=0;overflow=hidden;" vertex="1" parent="aWxg0yhKqH9qwheQMupa-10">
                    <mxGeometry width="14" height="9" as="geometry">
                        <mxRectangle width="14" height="9" as="alternateBounds"/>
                    </mxGeometry>
                </mxCell>
                <mxCell id="aWxg0yhKqH9qwheQMupa-12" value="" style="shape=partialRectangle;html=1;whiteSpace=wrap;connectable=0;fillColor=none;top=0;left=0;bottom=0;right=0;overflow=hidden;" vertex="1" parent="aWxg0yhKqH9qwheQMupa-10">
                    <mxGeometry x="14" width="20" height="9" as="geometry">
                        <mxRectangle width="20" height="9" as="alternateBounds"/>
                    </mxGeometry>
                </mxCell>
                <mxCell id="aWxg0yhKqH9qwheQMupa-13" value="" style="shape=partialRectangle;html=1;whiteSpace=wrap;connectable=0;fillColor=none;top=0;left=0;bottom=0;right=0;overflow=hidden;" vertex="1" parent="aWxg0yhKqH9qwheQMupa-10">
                    <mxGeometry x="34" width="16" height="9" as="geometry">
                        <mxRectangle width="16" height="9" as="alternateBounds"/>
                    </mxGeometry>
                </mxCell>
                <mxCell id="aWxg0yhKqH9qwheQMupa-14" value="" style="shape=image;verticalLabelPosition=bottom;labelBackgroundColor=default;verticalAlign=top;aspect=fixed;imageAspect=0;image=https://techdiw.com/wp-content/uploads/2023/02/Delta-Lake-logo-1.jpg;clipPath=inset(8.33% 33.33% 8.33% 33.33%);" vertex="1" parent="aWxg0yhKqH9qwheQMupa-0">
                    <mxGeometry x="30" y="50" width="20" height="20" as="geometry"/>
                </mxCell>
                <mxCell id="aWxg0yhKqH9qwheQMupa-15" value="PJ_layer1_tables" style="text;html=1;align=center;verticalAlign=middle;resizable=0;points=[];autosize=1;strokeColor=none;fillColor=none;fontColor=#1A1A1A;" vertex="1" parent="aWxg0yhKqH9qwheQMupa-0">
                    <mxGeometry x="5" y="106" width="120" height="30" as="geometry"/>
                </mxCell>
                <mxCell id="RxE5hNDGwZCWaipX4T5_-45" value="" style="group" vertex="1" connectable="0" parent="aWxg0yhKqH9qwheQMupa-0">
                    <mxGeometry x="29" y="140" width="72" height="91.5" as="geometry"/>
                </mxCell>
                <mxCell id="RxE5hNDGwZCWaipX4T5_-30" value="PJ_label" style="text;html=1;align=center;verticalAlign=middle;resizable=0;points=[];autosize=1;strokeColor=none;fillColor=none;fontColor=#1A1A1A;" vertex="1" parent="RxE5hNDGwZCWaipX4T5_-45">
                    <mxGeometry x="2" y="61.5" width="70" height="30" as="geometry"/>
                </mxCell>
                <mxCell id="RxE5hNDGwZCWaipX4T5_-31" value="" style="shape=table;startSize=10;container=1;collapsible=0;childLayout=tableLayout;fontStyle=1;align=center;" vertex="1" parent="RxE5hNDGwZCWaipX4T5_-45">
                    <mxGeometry x="10" y="10" width="50" height="40" as="geometry"/>
                </mxCell>
                <mxCell id="RxE5hNDGwZCWaipX4T5_-32" value="" style="shape=tableRow;horizontal=0;startSize=0;swimlaneHead=0;swimlaneBody=0;top=0;left=0;bottom=0;right=0;collapsible=0;dropTarget=0;fillColor=none;points=[[0,0.5],[1,0.5]];portConstraint=eastwest;" vertex="1" parent="RxE5hNDGwZCWaipX4T5_-31">
                    <mxGeometry y="10" width="50" height="12" as="geometry"/>
                </mxCell>
                <mxCell id="RxE5hNDGwZCWaipX4T5_-33" value="" style="shape=partialRectangle;html=1;whiteSpace=wrap;connectable=0;fillColor=none;top=0;left=0;bottom=0;right=0;overflow=hidden;" vertex="1" parent="RxE5hNDGwZCWaipX4T5_-32">
                    <mxGeometry width="14" height="12" as="geometry">
                        <mxRectangle width="14" height="12" as="alternateBounds"/>
                    </mxGeometry>
                </mxCell>
                <mxCell id="RxE5hNDGwZCWaipX4T5_-34" value="" style="shape=partialRectangle;html=1;whiteSpace=wrap;connectable=0;fillColor=none;top=0;left=0;bottom=0;right=0;overflow=hidden;" vertex="1" parent="RxE5hNDGwZCWaipX4T5_-32">
                    <mxGeometry x="14" width="20" height="12" as="geometry">
                        <mxRectangle width="20" height="12" as="alternateBounds"/>
                    </mxGeometry>
                </mxCell>
                <mxCell id="RxE5hNDGwZCWaipX4T5_-35" value="" style="shape=partialRectangle;html=1;whiteSpace=wrap;connectable=0;fillColor=none;top=0;left=0;bottom=0;right=0;overflow=hidden;" vertex="1" parent="RxE5hNDGwZCWaipX4T5_-32">
                    <mxGeometry x="34" width="16" height="12" as="geometry">
                        <mxRectangle width="16" height="12" as="alternateBounds"/>
                    </mxGeometry>
                </mxCell>
                <mxCell id="RxE5hNDGwZCWaipX4T5_-36" value="" style="shape=tableRow;horizontal=0;startSize=0;swimlaneHead=0;swimlaneBody=0;top=0;left=0;bottom=0;right=0;collapsible=0;dropTarget=0;fillColor=none;points=[[0,0.5],[1,0.5]];portConstraint=eastwest;" vertex="1" parent="RxE5hNDGwZCWaipX4T5_-31">
                    <mxGeometry y="22" width="50" height="9" as="geometry"/>
                </mxCell>
                <mxCell id="RxE5hNDGwZCWaipX4T5_-37" value="" style="shape=partialRectangle;html=1;whiteSpace=wrap;connectable=0;fillColor=none;top=0;left=0;bottom=0;right=0;overflow=hidden;" vertex="1" parent="RxE5hNDGwZCWaipX4T5_-36">
                    <mxGeometry width="14" height="9" as="geometry">
                        <mxRectangle width="14" height="9" as="alternateBounds"/>
                    </mxGeometry>
                </mxCell>
                <mxCell id="RxE5hNDGwZCWaipX4T5_-38" value="" style="shape=partialRectangle;html=1;whiteSpace=wrap;connectable=0;fillColor=none;top=0;left=0;bottom=0;right=0;overflow=hidden;" vertex="1" parent="RxE5hNDGwZCWaipX4T5_-36">
                    <mxGeometry x="14" width="20" height="9" as="geometry">
                        <mxRectangle width="20" height="9" as="alternateBounds"/>
                    </mxGeometry>
                </mxCell>
                <mxCell id="RxE5hNDGwZCWaipX4T5_-39" value="" style="shape=partialRectangle;html=1;whiteSpace=wrap;connectable=0;fillColor=none;top=0;left=0;bottom=0;right=0;overflow=hidden;" vertex="1" parent="RxE5hNDGwZCWaipX4T5_-36">
                    <mxGeometry x="34" width="16" height="9" as="geometry">
                        <mxRectangle width="16" height="9" as="alternateBounds"/>
                    </mxGeometry>
                </mxCell>
                <mxCell id="RxE5hNDGwZCWaipX4T5_-40" value="" style="shape=tableRow;horizontal=0;startSize=0;swimlaneHead=0;swimlaneBody=0;top=0;left=0;bottom=0;right=0;collapsible=0;dropTarget=0;fillColor=none;points=[[0,0.5],[1,0.5]];portConstraint=eastwest;" vertex="1" parent="RxE5hNDGwZCWaipX4T5_-31">
                    <mxGeometry y="31" width="50" height="9" as="geometry"/>
                </mxCell>
                <mxCell id="RxE5hNDGwZCWaipX4T5_-41" value="" style="shape=partialRectangle;html=1;whiteSpace=wrap;connectable=0;fillColor=none;top=0;left=0;bottom=0;right=0;overflow=hidden;" vertex="1" parent="RxE5hNDGwZCWaipX4T5_-40">
                    <mxGeometry width="14" height="9" as="geometry">
                        <mxRectangle width="14" height="9" as="alternateBounds"/>
                    </mxGeometry>
                </mxCell>
                <mxCell id="RxE5hNDGwZCWaipX4T5_-42" value="" style="shape=partialRectangle;html=1;whiteSpace=wrap;connectable=0;fillColor=none;top=0;left=0;bottom=0;right=0;overflow=hidden;" vertex="1" parent="RxE5hNDGwZCWaipX4T5_-40">
                    <mxGeometry x="14" width="20" height="9" as="geometry">
                        <mxRectangle width="20" height="9" as="alternateBounds"/>
                    </mxGeometry>
                </mxCell>
                <mxCell id="RxE5hNDGwZCWaipX4T5_-43" value="" style="shape=partialRectangle;html=1;whiteSpace=wrap;connectable=0;fillColor=none;top=0;left=0;bottom=0;right=0;overflow=hidden;" vertex="1" parent="RxE5hNDGwZCWaipX4T5_-40">
                    <mxGeometry x="34" width="16" height="9" as="geometry">
                        <mxRectangle width="16" height="9" as="alternateBounds"/>
                    </mxGeometry>
                </mxCell>
                <mxCell id="RxE5hNDGwZCWaipX4T5_-44" value="" style="shape=image;verticalLabelPosition=bottom;labelBackgroundColor=default;verticalAlign=top;aspect=fixed;imageAspect=0;image=https://techdiw.com/wp-content/uploads/2023/02/Delta-Lake-logo-1.jpg;clipPath=inset(8.33% 33.33% 8.33% 33.33%);" vertex="1" parent="RxE5hNDGwZCWaipX4T5_-45">
                    <mxGeometry width="20" height="20" as="geometry"/>
                </mxCell>
            </root>
        </mxGraphModel>
    </diagram>
</mxfile>